<svg class="animated" id="freepik_stories-otaku" xmlns="http://www.w3.org/2000/svg" viewBox="0 0 500 500" version="1.1" xmlns:xlink="http://www.w3.org/1999/xlink" xmlns:svgjs="http://svgjs.com/svgjs"><style>svg#freepik_stories-otaku:not(.animated) .animable {opacity: 0;}svg#freepik_stories-otaku.animated #freepik--background-complete--inject-21 {animation: 0.5s 1 forwards cubic-bezier(.36,-0.01,.5,1.38) fadeIn;animation-delay: 0.3s;opacity: 0}svg#freepik_stories-otaku.animated #freepik--Speech_Bubble--inject-21 {animation: 1s 1 forwards cubic-bezier(.36,-0.01,.5,1.38) slideDown,1.5s Infinite  linear heartbeat;animation-delay: 0s,1.5s;}svg#freepik_stories-otaku.animated #freepik--Character--inject-21 {animation: 1.5s Infinite  linear floating;animation-delay: 0s;}            @keyframes fadeIn {                0% {                    opacity: 0;                }                100% {                    opacity: 1;                }            }                    @keyframes slideDown {                0% {                    opacity: 0;                    transform: translateY(-30px);                }                100% {                    opacity: 1;                    transform: translateY(0);                }            }                    @keyframes heartbeat {                0% {                    transform: scale(1);                }                10% {                    transform: scale(1.1);                }                30% {                    transform: scale(1);                }                40% {                    transform: scale(1);                }                50% {                    transform: scale(1.1);                }                60% {                    transform: scale(1);                }                100% {                    transform: scale(1);                }            }                    @keyframes floating {                0% {                    opacity: 1;                    transform: translateY(0px);                }                50% {                    transform: translateY(-10px);                }                100% {                    opacity: 1;                    transform: translateY(0px);                }            }        </style><g id="freepik--background-complete--inject-21" class="animable" style="transform-origin: 249.995px 247.121px;"><g id="elhxuxicuchce" class="animable" style="transform-origin: 249.995px 250px;"><path d="M319.24,250.71c-47.98-.45-91.41-.85-122.88-1.15-15.7-.07-28.41-.13-37.24-.18-4.37,.01-7.78,.02-10.13,.02-1.13,.01-2.01,.03-2.63,.03-.59,.01-.9,.03-.9,.05s.3,.04,.9,.06c.63,.01,1.5,.03,2.63,.06,2.35,.03,5.75,.07,10.12,.12,8.83,.05,21.54,.11,37.24,.2,31.48,.02,74.9,.05,122.89,.08,47.96,0,91.39,.06,122.84,.28,15.72,.11,28.44,.26,37.24,.42,4.4,.08,7.81,.17,10.12,.26,2.31,.09,3.53,.18,3.53,.26,0,.08-1.22,.16-3.53,.22s-5.73,.12-10.13,.16c-8.79,.08-21.52,.1-37.24,.05-31.44-.09-74.87-.46-122.83-.94Z" style="fill: rgb(245, 245, 245); transform-origin: 319.215px 250.529px;" id="elyw1o3ajrhc" class="animable"></path><path d="M318.28,261.23c-47.33-7.69-90.16-14.66-121.2-19.7-15.5-2.44-28.05-4.42-36.76-5.79-4.32-.65-7.68-1.15-10.01-1.5-1.12-.16-1.99-.28-2.61-.36-.59-.08-.89-.1-.89-.09,0,.02,.29,.08,.88,.19,.62,.11,1.47,.26,2.59,.46,2.32,.38,5.67,.94,9.98,1.65,8.71,1.38,21.26,3.37,36.75,5.82,31.09,4.77,73.98,11.35,121.38,18.62,47.38,7.23,90.28,13.85,121.3,18.82,15.51,2.48,28.06,4.55,36.72,6.04,4.33,.75,7.69,1.35,9.96,1.79,2.27,.44,3.46,.71,3.44,.79-.01,.08-1.23-.02-3.53-.31-2.3-.28-5.68-.75-10.03-1.37-8.7-1.25-21.27-3.15-36.79-5.57-31.05-4.83-73.89-11.77-121.19-19.49Z" style="fill: rgb(245, 245, 245); transform-origin: 318.31px 260.892px;" id="elkwfzhf057u" class="animable"></path><path d="M315.64,271.48c-45.49-14.84-86.66-28.28-116.5-38.01-14.91-4.78-26.98-8.66-35.36-11.35-4.16-1.3-7.4-2.32-9.64-3.01-1.08-.33-1.92-.58-2.52-.76-.57-.16-.86-.24-.87-.22,0,.02,.28,.13,.83,.33,.59,.2,1.41,.48,2.48,.85,2.23,.73,5.45,1.8,9.59,3.16,8.38,2.7,20.45,6.58,35.35,11.37,29.93,9.47,71.22,22.53,116.85,36.97,45.62,14.39,86.91,27.49,116.74,37.15,14.92,4.83,26.97,8.79,35.28,11.59,4.15,1.4,7.37,2.51,9.55,3.29,2.17,.78,3.3,1.23,3.27,1.31-.03,.08-1.21-.21-3.43-.84-2.22-.63-5.49-1.61-9.68-2.89-8.39-2.57-20.5-6.37-35.43-11.13-29.88-9.53-71.06-22.93-116.52-37.8Z" style="fill: rgb(245, 245, 245); transform-origin: 315.72px 271.145px;" id="elyi2nw7zdrg" class="animable"></path><path d="M311.37,281.18c-42.52-21.61-81-41.17-108.89-55.35-13.95-7.01-25.24-12.68-33.08-16.61-3.9-1.92-6.93-3.42-9.03-4.45-1.02-.49-1.8-.86-2.36-1.13-.53-.25-.81-.37-.82-.35,0,.02,.25,.17,.77,.45,.55,.29,1.32,.69,2.32,1.22,2.08,1.06,5.09,2.61,8.96,4.59,7.84,3.94,19.13,9.62,33.07,16.64,28.02,13.93,66.69,33.15,109.41,54.38,42.72,21.19,81.37,40.44,109.27,54.54,13.95,7.05,25.21,12.8,32.96,16.84,3.88,2.02,6.88,3.6,8.9,4.7,2.02,1.1,3.06,1.72,3.02,1.79-.04,.08-1.16-.39-3.25-1.36-2.09-.97-5.16-2.43-9.09-4.34-7.87-3.82-19.21-9.43-33.19-16.42-27.96-13.98-66.46-33.51-108.95-55.14Z" style="fill: rgb(245, 245, 245); transform-origin: 311.531px 280.868px;" id="el91b3je61019" class="animable"></path><path d="M305.6,290.12c-38.52-27.81-73.38-52.97-98.65-71.21-12.65-9.04-22.89-16.36-30-21.44-3.54-2.49-6.3-4.43-8.2-5.77-.93-.64-1.64-1.13-2.15-1.48-.49-.33-.74-.49-.76-.47-.01,.01,.22,.2,.69,.56,.5,.37,1.19,.89,2.09,1.56,1.88,1.37,4.61,3.35,8.11,5.89,7.11,5.09,17.34,12.41,29.99,21.46,25.44,18.02,60.54,42.87,99.32,70.34,38.78,27.42,73.87,52.31,99.15,70.47,12.64,9.08,22.84,16.47,29.85,21.64,3.5,2.58,6.21,4.6,8.03,6,1.82,1.4,2.75,2.16,2.69,2.23-.05,.07-1.08-.57-2.99-1.84-1.91-1.27-4.7-3.18-8.28-5.66-7.16-4.97-17.46-12.23-30.14-21.26-25.37-18.05-60.26-43.19-98.74-71.02Z" style="fill: rgb(245, 245, 245); transform-origin: 305.801px 289.827px;" id="elfhvofuil1" class="animable"></path><path d="M298.45,298.07c-33.6-33.29-64.02-63.42-86.06-85.26-11.05-10.84-20-19.62-26.21-25.71-3.1-3-5.51-5.33-7.18-6.94-.81-.77-1.44-1.36-1.89-1.78-.43-.4-.66-.59-.67-.58-.01,.01,.19,.24,.59,.66,.43,.44,1.03,1.05,1.82,1.85,1.64,1.64,4.02,4,7.07,7.05,6.21,6.1,15.15,14.88,26.19,25.73,22.25,21.64,52.94,51.5,86.85,84.49,33.92,32.95,64.59,62.84,86.67,84.6,11.04,10.88,19.93,19.73,26.03,25.89,3.05,3.08,5.4,5.49,6.97,7.14,1.57,1.65,2.37,2.55,2.31,2.61-.06,.06-.98-.72-2.66-2.27-1.68-1.55-4.14-3.85-7.28-6.85-6.28-5.99-15.29-14.72-26.37-25.55-22.17-21.67-52.61-51.78-86.17-85.08Z" style="fill: rgb(245, 245, 245); transform-origin: 298.691px 297.811px;" id="ele0b1tjluise" class="animable"></path><path d="M290.13,304.85c-27.87-37.97-53.09-72.32-71.37-97.23-9.18-12.38-16.61-22.4-21.77-29.36-2.58-3.43-4.59-6.1-5.98-7.94-.68-.88-1.2-1.56-1.58-2.05-.36-.46-.55-.69-.57-.68-.02,.01,.15,.26,.48,.74,.36,.5,.85,1.2,1.5,2.11,1.36,1.86,3.33,4.56,5.85,8.03,5.16,6.96,12.58,16.99,21.75,29.38,18.51,24.74,44.05,58.87,72.27,96.59,28.24,37.68,53.75,71.84,72.07,96.67,9.16,12.42,16.53,22.5,21.57,29.51,2.52,3.5,4.46,6.24,5.74,8.11,1.29,1.87,1.93,2.88,1.86,2.93-.07,.05-.85-.86-2.27-2.64-1.42-1.78-3.47-4.43-6.09-7.86-5.24-6.86-12.75-16.85-21.96-29.23-18.43-24.76-43.69-59.1-71.51-97.07Z" style="fill: rgb(245, 245, 245); transform-origin: 290.407px 304.626px;" id="el9przxq5t417" class="animable"></path><path d="M280.82,310.28c-21.42-41.73-40.8-79.5-54.84-106.88-7.08-13.62-12.81-24.65-16.78-32.31-2-3.78-3.56-6.72-4.63-8.75-.53-.97-.94-1.72-1.23-2.26-.28-.51-.44-.76-.45-.75-.02,0,.1,.28,.35,.8,.27,.55,.65,1.31,1.14,2.31,1.04,2.05,2.55,5.01,4.49,8.82,3.97,7.66,9.69,18.69,16.76,32.32,14.3,27.25,34.04,64.84,55.85,106.39,21.83,41.51,41.54,79.12,55.64,106.44,7.05,13.66,12.71,24.73,16.55,32.42,1.92,3.84,3.4,6.84,4.37,8.88,.97,2.04,1.44,3.14,1.36,3.17-.08,.04-.7-.98-1.82-2.95-1.11-1.97-2.72-4.9-4.75-8.69-4.07-7.58-9.88-18.58-16.99-32.21-14.22-27.25-33.64-65.01-55.01-106.74Z" style="fill: rgb(245, 245, 245); transform-origin: 281.148px 310.105px;" id="elmm4r57suyse" class="animable"></path><path d="M270.75,314.22c-14.39-44.49-27.42-84.75-36.86-113.93-4.78-14.53-8.66-26.3-11.35-34.47-1.36-4.04-2.42-7.18-3.16-9.35-.37-1.04-.65-1.85-.85-2.42-.2-.54-.31-.82-.33-.81-.02,0,.06,.29,.22,.85,.18,.58,.43,1.4,.75,2.45,.7,2.18,1.71,5.34,3,9.4,2.68,8.17,6.55,19.94,11.32,34.48,9.72,29.1,23.12,69.24,37.93,113.6,14.84,44.33,28.21,84.49,37.71,113.62,4.75,14.56,8.54,26.37,11.1,34.55,1.28,4.09,2.25,7.27,2.88,9.44,.63,2.17,.92,3.32,.83,3.34-.08,.03-.54-1.07-1.32-3.19-.78-2.12-1.89-5.26-3.29-9.31-2.8-8.1-6.75-19.86-11.56-34.4-9.64-29.09-22.7-69.35-37.04-113.83Z" style="fill: rgb(245, 245, 245); transform-origin: 271.076px 314.105px;" id="el4ln5ogz8y0a" class="animable"></path><path d="M260.16,316.58c-7.01-46.14-13.36-87.89-17.96-118.15-2.37-15.09-4.29-27.3-5.62-35.78-.69-4.2-1.23-7.46-1.6-9.72-.19-1.09-.34-1.92-.45-2.52-.11-.57-.17-.86-.19-.85-.02,0,0,.3,.08,.87,.08,.6,.2,1.44,.35,2.54,.34,2.26,.82,5.53,1.45,9.74,1.33,8.48,3.24,20.69,5.6,35.78,4.88,30.22,11.62,71.91,19.07,117.99,7.48,46.04,14.18,87.75,18.85,117.97,2.34,15.11,4.17,27.35,5.37,35.81,.6,4.23,1.04,7.52,1.31,9.76,.27,2.24,.37,3.42,.28,3.43-.09,.01-.35-1.14-.78-3.36-.43-2.21-1.01-5.48-1.74-9.7-1.45-8.43-3.45-20.64-5.85-35.74-4.81-30.2-11.19-71.95-18.16-118.07Z" style="fill: rgb(245, 245, 245); transform-origin: 260.533px 316.505px;" id="elef0dms55clg" class="animable"></path><path d="M249.32,317.29c.43-46.64,.82-88.84,1.11-119.43,.07-15.26,.12-27.61,.16-36.19-.01-4.25-.02-7.56-.03-9.84-.02-1.1-.03-1.95-.04-2.56-.01-.58-.03-.87-.05-.87-.02,0-.04,.3-.06,.87-.01,.61-.03,1.46-.06,2.56-.03,2.28-.07,5.59-.12,9.84-.04,8.58-.1,20.93-.18,36.19,0,30.59,0,72.8,0,119.43,.03,46.61,0,88.83-.22,119.38-.1,15.28-.24,27.64-.41,36.19-.08,4.27-.17,7.59-.26,9.84-.09,2.25-.18,3.43-.26,3.43-.09,0-.17-1.18-.23-3.43-.07-2.25-.12-5.57-.17-9.84-.08-8.55-.11-20.91-.07-36.19,.07-30.56,.43-72.77,.89-119.38Z" style="fill: rgb(245, 245, 245); transform-origin: 249.501px 317.265px;" id="elewv9zo8iy8d" class="animable"></path><path d="M238.49,316.37c7.89-46,15.02-87.63,20.2-117.81,2.5-15.07,4.53-27.26,5.94-35.73,.67-4.2,1.18-7.47,1.54-9.73,.16-1.09,.28-1.93,.37-2.53,.08-.57,.11-.87,.09-.87-.02,0-.09,.29-.2,.85-.11,.6-.27,1.43-.47,2.52-.39,2.25-.96,5.51-1.7,9.7-1.41,8.47-3.45,20.66-5.97,35.73-4.89,30.22-11.63,71.91-19.09,117.98-7.41,46.05-14.19,87.75-19.29,117.9-2.54,15.08-4.66,27.27-6.19,35.69-.76,4.21-1.38,7.47-1.83,9.68-.45,2.21-.73,3.36-.81,3.35-.09-.01,.02-1.19,.31-3.43,.29-2.23,.77-5.52,1.41-9.75,1.28-8.46,3.23-20.68,5.71-35.76,4.96-30.18,12.06-71.82,19.98-117.79Z" style="fill: rgb(245, 245, 245); transform-origin: 238.843px 316.4px;" id="elxch7y6oeev" class="animable"></path><path d="M227.94,313.81c15.24-44.22,29.04-84.24,39.04-113.25,4.91-14.49,8.89-26.23,11.65-34.38,1.34-4.05,2.38-7.19,3.1-9.37,.33-1.05,.59-1.86,.78-2.45,.17-.55,.25-.84,.23-.84-.02,0-.13,.27-.33,.81-.21,.57-.5,1.37-.87,2.41-.75,2.16-1.85,5.3-3.25,9.32-2.77,8.15-6.76,19.88-11.68,34.37-9.72,29.1-23.14,69.24-37.96,113.59-14.78,44.35-28.23,84.48-38.15,113.48-4.96,14.5-9.02,26.22-11.9,34.29-1.44,4.04-2.58,7.17-3.38,9.28-.8,2.11-1.26,3.21-1.35,3.18-.08-.03,.21-1.18,.86-3.34,.65-2.16,1.65-5.33,2.97-9.41,2.63-8.15,6.54-19.92,11.43-34.44,9.78-29.04,23.55-69.08,38.82-113.26Z" style="fill: rgb(245, 245, 245); transform-origin: 228.3px 313.885px;" id="elhjhv9teelv" class="animable"></path><path d="M217.96,309.67c22.21-41.34,42.31-78.75,56.88-105.87,7.2-13.56,13.03-24.54,17.07-32.16,1.98-3.79,3.51-6.74,4.58-8.78,.5-.99,.89-1.75,1.16-2.3,.26-.52,.38-.79,.36-.8-.02,0-.17,.25-.46,.75-.3,.53-.71,1.28-1.25,2.25-1.09,2.02-2.68,4.95-4.72,8.71-4.05,7.62-9.89,18.6-17.1,32.15-14.31,27.24-34.06,64.83-55.89,106.37-21.78,41.53-41.56,79.11-56.05,106.23-7.24,13.56-13.16,24.51-17.3,32.05-2.07,3.77-3.7,6.69-4.84,8.65-1.13,1.96-1.77,2.98-1.84,2.94-.08-.04,.4-1.13,1.4-3.16,.99-2.03,2.49-5.01,4.46-8.84,3.92-7.65,9.69-18.67,16.87-32.26,14.36-27.18,34.44-64.62,56.67-105.92Z" style="fill: rgb(245, 245, 245); transform-origin: 218.282px 309.811px;" id="elq5wm1luo2d" class="animable"></path><path d="M208.76,304.06c28.59-37.46,54.46-71.36,73.21-95.93,9.29-12.3,16.81-22.26,22.04-29.17,2.56-3.44,4.56-6.12,5.93-7.98,.65-.9,1.16-1.59,1.52-2.09,.34-.48,.5-.72,.49-.73-.02-.01-.21,.22-.58,.67-.38,.48-.91,1.16-1.6,2.03-1.41,1.83-3.44,4.48-6.06,7.89-5.23,6.91-12.76,16.86-22.06,29.16-18.52,24.74-44.07,58.86-72.31,96.57-28.19,37.71-53.78,71.82-72.45,96.41-9.33,12.29-16.94,22.21-22.24,29.03-2.65,3.41-4.73,6.04-6.17,7.81-1.43,1.77-2.22,2.67-2.29,2.62-.07-.05,.58-1.05,1.89-2.91,1.31-1.86,3.27-4.57,5.82-8.05,5.11-6.96,12.57-16.97,21.85-29.31,18.56-24.67,44.41-58.59,73.01-96.01Z" style="fill: rgb(245, 245, 245); transform-origin: 209.068px 304.256px;" id="elp6n4cu74ah" class="animable"></path><path d="M200.57,297.12c34.23-32.68,65.21-62.26,87.67-83.69,11.15-10.75,20.17-19.45,26.44-25.49,3.08-3.02,5.48-5.36,7.14-6.98,.79-.79,1.4-1.4,1.83-1.84,.41-.42,.61-.64,.6-.65-.01-.01-.24,.18-.68,.58-.45,.42-1.08,1.01-1.91,1.77-1.68,1.6-4.12,3.9-7.25,6.87-6.27,6.04-15.3,14.73-26.46,25.47-22.25,21.63-52.96,51.48-86.88,84.46-33.88,32.99-64.62,62.82-87,84.28-11.19,10.73-20.28,19.38-26.62,25.31-3.17,2.97-5.64,5.25-7.34,6.78-1.7,1.53-2.62,2.3-2.68,2.24-.06-.06,.74-.95,2.33-2.59,1.59-1.64,3.96-4.02,7.04-7.08,6.16-6.1,15.13-14.87,26.28-25.65,22.28-21.56,53.24-51.17,87.48-83.81Z" style="fill: rgb(245, 245, 245); transform-origin: 200.839px 297.351px;" id="el7srouuqoa3" class="animable"></path><path d="M193.59,289.04c39.05-27.11,74.38-51.64,100-69.42,12.73-8.93,23.04-16.16,30.2-21.18,3.53-2.51,6.27-4.47,8.17-5.82,.91-.66,1.61-1.17,2.11-1.54,.47-.35,.71-.54,.7-.55-.01-.01-.27,.14-.76,.47-.51,.35-1.23,.83-2.17,1.46-1.92,1.32-4.69,3.24-8.26,5.69-7.16,5.02-17.47,12.24-30.21,21.16-25.45,18.01-60.55,42.85-99.34,70.3-38.75,27.47-73.88,52.29-99.43,70.11-12.77,8.91-23.14,16.08-30.34,20.98-3.6,2.45-6.41,4.33-8.34,5.59-1.92,1.25-2.96,1.88-3.01,1.81-.05-.07,.88-.83,2.72-2.21,1.83-1.38,4.56-3.38,8.09-5.93,7.06-5.1,17.33-12.4,30.06-21.36,25.46-17.93,60.78-42.49,99.83-69.56Z" style="fill: rgb(245, 245, 245); transform-origin: 193.839px 289.317px;" id="el0nh7mah4v87" class="animable"></path><path d="M188,279.99c42.93-20.84,81.78-39.7,109.94-53.37,14.01-6.89,25.36-12.46,33.23-16.33,3.89-1.95,6.91-3.46,9-4.51,1-.52,1.77-.91,2.33-1.2,.52-.28,.78-.43,.78-.44,0-.02-.29,.1-.83,.34-.56,.26-1.35,.63-2.37,1.11-2.11,1.01-5.15,2.48-9.07,4.37-7.88,3.87-19.23,9.43-33.24,16.31-28.03,13.92-66.7,33.12-109.43,54.34-42.69,21.24-81.38,40.42-109.48,54.14-14.05,6.86-25.44,12.36-33.35,16.11-3.95,1.87-7.03,3.31-9.13,4.25-2.1,.95-3.23,1.4-3.27,1.33-.04-.08,1.01-.68,3.04-1.77,2.03-1.08,5.04-2.64,8.94-4.62,7.79-3.96,19.11-9.61,33.13-16.53,28.03-13.84,66.87-32.73,109.79-53.53Z" style="fill: rgb(245, 245, 245); transform-origin: 188.194px 280.292px;" id="eloqznb2rdsi" class="animable"></path><path d="M183.94,270.2c45.77-14.02,87.18-26.7,117.21-35.89,14.95-4.66,27.06-8.43,35.46-11.05,4.15-1.33,7.39-2.36,9.62-3.07,1.07-.36,1.9-.63,2.49-.83,.56-.19,.84-.3,.84-.32,0-.02-.3,.05-.87,.21-.6,.17-1.44,.42-2.52,.73-2.24,.68-5.49,1.66-9.67,2.93-8.41,2.61-20.51,6.37-35.47,11.02-29.93,9.46-71.23,22.51-116.86,36.94-45.6,14.45-86.91,27.47-116.88,36.73-14.98,4.63-27.13,8.32-35.54,10.81-4.21,1.24-7.48,2.19-9.71,2.8-2.23,.61-3.41,.89-3.44,.81-.03-.08,1.1-.52,3.29-1.28,2.18-.76,5.41-1.84,9.58-3.2,8.34-2.72,20.43-6.57,35.39-11.26,29.92-9.38,71.34-22.1,117.09-36.07Z" style="fill: rgb(245, 245, 245); transform-origin: 184.08px 270.535px;" id="elxnfq8tfrvx" class="animable"></path><path d="M181.51,259.91c47.47-6.84,90.42-13.04,121.56-17.52,15.52-2.31,28.08-4.19,36.81-5.49,4.32-.68,7.68-1.2,10-1.56,1.12-.19,1.98-.33,2.59-.44,.58-.1,.88-.17,.88-.19,0-.02-.31,0-.9,.08-.62,.08-1.49,.19-2.61,.34-2.32,.33-5.69,.8-10.02,1.41-8.73,1.29-21.29,3.16-36.81,5.46-31.09,4.77-73.99,11.34-121.39,18.6-47.37,7.3-90.28,13.84-121.37,18.39-15.55,2.28-28.14,4.07-36.85,5.24-4.36,.59-7.74,1.02-10.04,1.28-2.3,.26-3.51,.36-3.53,.28-.01-.08,1.18-.35,3.45-.76,2.28-.42,5.64-.99,9.98-1.69,8.67-1.41,21.24-3.37,36.77-5.71,31.07-4.69,74.03-10.92,121.48-17.72Z" style="fill: rgb(245, 245, 245); transform-origin: 181.59px 260.26px;" id="elzy0hg1h7en" class="animable"></path><path d="M180.76,249.38c47.98,.39,91.41,.74,122.88,1,15.7,.05,28.41,.1,37.24,.13,4.37-.02,7.78-.03,10.12-.04,1.13-.02,2.01-.03,2.63-.04,.59-.01,.9-.03,.9-.05,0-.02-.3-.04-.9-.06-.63-.01-1.5-.03-2.63-.06-2.35-.03-5.75-.06-10.12-.11-8.83-.04-21.54-.09-37.24-.15-31.48,.02-74.9,.04-122.89,.07-47.96,.06-91.39,.05-122.84-.13-15.72-.09-28.44-.22-37.24-.38-4.4-.08-7.81-.16-10.12-.24-2.31-.08-3.53-.17-3.53-.26,0-.08,1.22-.16,3.53-.23,2.32-.07,5.73-.12,10.13-.17,8.79-.09,21.52-.12,37.24-.09,31.44,.05,74.87,.37,122.83,.79Z" style="fill: rgb(245, 245, 245); transform-origin: 180.775px 249.534px;" id="eljxoa61mtuec" class="animable"></path><path d="M181.71,238.86c47.34,7.64,90.18,14.55,121.23,19.55,15.5,2.42,28.05,4.39,36.77,5.75,4.32,.64,7.69,1.14,10.01,1.49,1.12,.15,1.99,.27,2.61,.36,.59,.07,.89,.1,.89,.09,0-.02-.29-.08-.88-.19-.62-.11-1.48-.26-2.59-.46-2.32-.38-5.67-.93-9.98-1.64-8.71-1.37-21.26-3.34-36.76-5.78-31.1-4.73-74-11.26-121.41-18.47-47.39-7.17-90.29-13.74-121.32-18.67-15.52-2.46-28.06-4.51-36.72-6-4.33-.74-7.69-1.34-9.96-1.77-2.27-.43-3.46-.7-3.45-.79,.01-.08,1.23,.02,3.53,.3,2.3,.28,5.68,.74,10.03,1.36,8.7,1.24,21.28,3.13,36.8,5.53,31.05,4.8,73.9,11.67,121.21,19.34Z" style="fill: rgb(245, 245, 245); transform-origin: 181.685px 239.203px;" id="el2deo4ax7tjr" class="animable"></path><path d="M184.33,228.61c45.51,14.79,86.69,28.17,116.55,37.87,14.92,4.77,26.99,8.62,35.38,11.3,4.16,1.3,7.4,2.31,9.64,3,1.08,.32,1.92,.57,2.52,.75,.57,.16,.86,.24,.87,.22,0-.02-.28-.13-.83-.32-.59-.2-1.41-.48-2.48-.85-2.23-.73-5.45-1.79-9.59-3.15-8.38-2.69-20.46-6.55-35.37-11.33-29.94-9.43-71.25-22.44-116.9-36.82-45.64-14.34-86.94-27.38-116.79-37-14.92-4.81-26.98-8.75-35.29-11.54-4.16-1.39-7.38-2.5-9.55-3.28-2.17-.78-3.3-1.23-3.27-1.31,.03-.08,1.21,.21,3.43,.84,2.22,.63,5.49,1.6,9.69,2.88,8.39,2.55,20.5,6.34,35.45,11.09,29.89,9.49,71.09,22.84,116.56,37.66Z" style="fill: rgb(245, 245, 245); transform-origin: 184.255px 228.945px;" id="el4144tih1k42" class="animable"></path><path d="M188.59,218.89c42.55,21.56,81.06,41.07,108.97,55.21,13.96,6.99,25.26,12.65,33.11,16.57,3.9,1.92,6.94,3.41,9.03,4.44,1.02,.49,1.8,.86,2.36,1.13,.54,.25,.81,.37,.82,.35,0-.02-.25-.17-.77-.45-.55-.29-1.32-.69-2.32-1.22-2.08-1.06-5.09-2.6-8.96-4.58-7.84-3.93-19.14-9.6-33.09-16.6-28.04-13.9-66.73-33.07-109.48-54.25-42.75-21.14-81.42-40.34-109.34-54.41-13.96-7.03-25.23-12.77-32.99-16.79-3.88-2.01-6.88-3.6-8.9-4.69-2.02-1.1-3.06-1.71-3.02-1.79,.04-.08,1.16,.39,3.25,1.36,2.09,.96,5.16,2.42,9.1,4.33,7.87,3.81,19.22,9.4,33.21,16.38,27.98,13.94,66.51,33.43,109.02,55.01Z" style="fill: rgb(245, 245, 245); transform-origin: 188.444px 219.197px;" id="el3ge11g70jnb" class="animable"></path><path d="M194.35,209.95c38.56,27.76,73.45,52.88,98.75,71.09,12.66,9.02,22.91,16.33,30.03,21.4,3.55,2.49,6.3,4.42,8.21,5.76,.93,.63,1.64,1.12,2.15,1.47,.49,.33,.74,.49,.76,.47,.01-.01-.22-.2-.69-.56-.5-.37-1.19-.88-2.09-1.55-1.88-1.36-4.61-3.34-8.12-5.88-7.11-5.08-17.36-12.39-30.02-21.42-25.46-17.98-60.59-42.8-99.41-70.21-38.82-27.37-73.93-52.22-99.24-70.35-12.66-9.06-22.86-16.45-29.88-21.6-3.51-2.58-6.22-4.6-8.04-5.99-1.82-1.39-2.75-2.16-2.7-2.23,.05-.07,1.08,.56,3,1.83,1.91,1.27,4.71,3.18,8.29,5.65,7.16,4.96,17.47,12.21,30.17,21.22,25.39,18.02,60.31,43.12,98.83,70.9Z" style="fill: rgb(245, 245, 245); transform-origin: 194.154px 210.243px;" id="elczm875kthp6" class="animable"></path><path d="M201.48,201.99c33.65,33.25,64.1,63.34,86.17,85.15,11.06,10.83,20.02,19.59,26.24,25.68,3.1,2.99,5.52,5.32,7.19,6.93,.81,.77,1.44,1.36,1.89,1.78,.43,.4,.66,.59,.67,.58,.01-.01-.19-.24-.59-.66-.43-.44-1.04-1.05-1.82-1.85-1.64-1.63-4.02-4-7.08-7.04-6.22-6.09-15.17-14.86-26.22-25.7-22.27-21.61-53-51.43-86.96-84.39-33.97-32.91-64.68-62.76-86.77-84.5-11.05-10.87-19.95-19.7-26.06-25.85-3.05-3.08-5.41-5.48-6.98-7.13-1.57-1.65-2.37-2.55-2.31-2.61,.06-.06,.98,.72,2.67,2.26,1.69,1.54,4.14,3.85,7.28,6.84,6.28,5.98,15.31,14.7,26.4,25.52,22.2,21.64,52.68,51.71,86.28,84.97Z" style="fill: rgb(245, 245, 245); transform-origin: 201.244px 202.244px;" id="elyof06okh4ro" class="animable"></path><path d="M209.8,195.2c27.92,37.93,53.18,72.26,71.49,97.14,9.2,12.37,16.64,22.38,21.81,29.33,2.59,3.43,4.6,6.09,5.99,7.93,.68,.88,1.21,1.56,1.58,2.05,.36,.46,.55,.69,.57,.68s-.15-.26-.48-.74c-.36-.5-.85-1.2-1.5-2.1-1.36-1.86-3.33-4.56-5.86-8.02-5.17-6.96-12.6-16.97-21.79-29.35-18.54-24.72-44.13-58.82-72.4-96.5-28.29-37.64-53.85-71.77-72.2-96.59-9.18-12.41-16.56-22.48-21.6-29.48-2.52-3.5-4.46-6.23-5.75-8.1-1.29-1.87-1.93-2.88-1.86-2.93,.07-.05,.85,.86,2.27,2.64,1.42,1.78,3.48,4.43,6.1,7.86,5.25,6.86,12.77,16.83,22,29.2,18.47,24.73,43.76,59.05,71.63,96.98Z" style="fill: rgb(245, 245, 245); transform-origin: 209.518px 195.424px;" id="elq2k95031jrg" class="animable"></path><path d="M219.1,189.76c21.47,41.71,40.9,79.45,54.98,106.81,7.09,13.61,12.84,24.63,16.83,32.29,2,3.78,3.56,6.72,4.64,8.75,.53,.97,.94,1.72,1.23,2.26,.28,.51,.44,.76,.45,.75,.02,0-.1-.28-.36-.8-.27-.55-.65-1.31-1.14-2.31-1.04-2.05-2.56-5.01-4.5-8.81-3.98-7.66-9.72-18.68-16.8-32.3-14.34-27.23-34.12-64.8-55.99-106.32-21.88-41.48-41.64-79.07-55.77-106.37-7.07-13.65-12.74-24.72-16.6-32.4-1.93-3.84-3.41-6.83-4.38-8.88-.97-2.04-1.45-3.13-1.37-3.17,.08-.04,.7,.98,1.82,2.95,1.12,1.97,2.72,4.9,4.76,8.69,4.08,7.57,9.9,18.57,17.03,32.19,14.26,27.24,33.72,64.97,55.15,106.67Z" style="fill: rgb(245, 245, 245); transform-origin: 218.772px 189.94px;" id="elonbut5th4vh" class="animable"></path><path d="M229.17,185.81c14.45,44.47,27.53,84.72,37.01,113.89,4.8,14.53,8.69,26.29,11.39,34.46,1.37,4.04,2.43,7.18,3.17,9.35,.37,1.04,.65,1.85,.85,2.42,.2,.54,.31,.82,.33,.81,.02,0-.06-.29-.22-.85-.18-.58-.43-1.4-.76-2.45-.7-2.18-1.71-5.34-3.02-9.39-2.69-8.17-6.57-19.93-11.36-34.47-9.75-29.09-23.21-69.21-38.08-113.55-14.9-44.31-28.32-84.45-37.86-113.57-4.77-14.56-8.58-26.36-11.14-34.53-1.28-4.09-2.26-7.27-2.89-9.43-.63-2.17-.92-3.32-.84-3.34,.08-.03,.54,1.07,1.32,3.19,.78,2.12,1.9,5.26,3.3,9.31,2.81,8.1,6.78,19.85,11.61,34.39,9.67,29.08,22.79,69.32,37.19,113.78Z" style="fill: rgb(245, 245, 245); transform-origin: 228.83px 185.95px;" id="el2pdb4r4c1sa" class="animable"></path><path d="M239.76,183.44c7.07,46.13,13.47,87.87,18.11,118.13,2.39,15.08,4.33,27.29,5.67,35.77,.7,4.2,1.24,7.46,1.62,9.71,.19,1.09,.34,1.92,.45,2.52,.11,.57,.17,.86,.19,.85,.02,0,0-.3-.08-.87-.08-.6-.2-1.44-.35-2.54-.34-2.26-.83-5.53-1.46-9.74-1.34-8.48-3.26-20.69-5.64-35.77-4.92-30.22-11.71-71.9-19.22-117.96-7.54-46.03-14.3-87.73-19-117.95-2.36-15.11-4.2-27.34-5.41-35.81-.61-4.23-1.05-7.52-1.33-9.76-.27-2.24-.37-3.42-.29-3.43,.09-.01,.36,1.14,.79,3.35,.43,2.21,1.02,5.48,1.75,9.7,1.46,8.43,3.48,20.64,5.9,35.74,4.85,30.19,11.28,71.94,18.31,118.05Z" style="fill: rgb(245, 245, 245); transform-origin: 239.4px 183.505px;" id="el5n7ncv3py4u" class="animable"></path><path d="M250.59,182.71c-.37,46.64-.71,88.84-.95,119.43-.05,15.26-.08,27.61-.11,36.19,.02,4.25,.03,7.56,.04,9.84,.02,1.1,.03,1.95,.04,2.56,.02,.58,.03,.87,.05,.87,.02,0,.04-.3,.06-.87,.01-.61,.03-1.46,.06-2.56,.03-2.28,.06-5.59,.11-9.84,.03-8.58,.08-20.93,.13-36.19-.04-30.59-.09-72.8-.15-119.43-.09-46.61-.11-88.83,.06-119.38,.08-15.28,.21-27.64,.36-36.19,.08-4.27,.16-7.59,.24-9.84,.09-2.25,.17-3.43,.26-3.43,.09,0,.17,1.18,.24,3.43,.07,2.25,.13,5.57,.18,9.84,.1,8.55,.14,20.91,.12,36.19-.03,30.56-.33,72.77-.74,119.38Z" style="fill: rgb(245, 245, 245); transform-origin: 250.432px 182.735px;" id="elxze8twgw89s" class="animable"></path><path d="M261.42,183.62c-7.83,46.01-14.91,87.65-20.04,117.83-2.48,15.07-4.49,27.27-5.89,35.74-.66,4.2-1.17,7.47-1.53,9.73-.16,1.09-.28,1.93-.37,2.53-.08,.57-.11,.87-.09,.87,.02,0,.09-.29,.2-.85,.11-.6,.27-1.43,.47-2.52,.39-2.25,.96-5.51,1.68-9.7,1.4-8.47,3.42-20.67,5.92-35.73,4.85-30.23,11.54-71.93,18.93-118.01,7.35-46.06,14.08-87.77,19.13-117.93,2.52-15.08,4.63-27.28,6.15-35.7,.76-4.21,1.37-7.47,1.82-9.68,.44-2.21,.72-3.36,.81-3.35,.09,.01-.02,1.19-.31,3.43-.29,2.23-.76,5.52-1.39,9.75-1.27,8.46-3.2,20.68-5.66,35.77-4.92,30.18-11.96,71.84-19.82,117.82Z" style="fill: rgb(245, 245, 245); transform-origin: 261.067px 183.585px;" id="el6ijomxz8k77" class="animable"></path><path d="M271.97,186.17c-15.19,44.24-28.93,84.27-38.89,113.29-4.89,14.5-8.86,26.24-11.61,34.39-1.33,4.05-2.37,7.2-3.08,9.37-.33,1.05-.59,1.86-.77,2.45-.17,.55-.24,.84-.23,.85,.02,0,.13-.27,.33-.81,.21-.57,.5-1.38,.87-2.42,.75-2.16,1.84-5.3,3.24-9.32,2.76-8.15,6.73-19.88,11.64-34.38,9.68-29.11,23.05-69.26,37.81-113.64,14.72-44.36,28.12-84.52,38-113.53,4.94-14.51,8.99-26.23,11.85-34.31,1.43-4.04,2.57-7.17,3.37-9.28,.8-2.11,1.26-3.21,1.34-3.18,.08,.03-.21,1.18-.86,3.34-.65,2.16-1.64,5.34-2.95,9.42-2.62,8.16-6.51,19.93-11.39,34.46-9.74,29.05-23.46,69.11-38.67,113.31Z" style="fill: rgb(245, 245, 245); transform-origin: 271.621px 186.085px;" id="el53xg91hpq3" class="animable"></path><path d="M281.97,190.29c-22.16,41.37-42.21,78.8-56.74,105.94-7.18,13.57-13,24.56-17.03,32.19-1.97,3.79-3.51,6.75-4.56,8.78-.5,.99-.88,1.75-1.16,2.3-.26,.52-.38,.79-.36,.8,.02,0,.17-.25,.46-.75,.3-.54,.71-1.28,1.25-2.25,1.09-2.02,2.67-4.95,4.7-8.71,4.04-7.63,9.86-18.61,17.06-32.17,14.28-27.26,33.98-64.87,55.75-106.44,21.72-41.56,41.46-79.16,55.91-106.3,7.22-13.57,13.12-24.53,17.26-32.07,2.07-3.77,3.69-6.69,4.82-8.65,1.13-1.97,1.76-2.98,1.84-2.94,.08,.04-.4,1.13-1.39,3.16-.99,2.04-2.49,5.02-4.44,8.84-3.91,7.65-9.66,18.69-16.83,32.29-14.33,27.2-34.35,64.66-56.53,105.99Z" style="fill: rgb(245, 245, 245); transform-origin: 281.648px 190.159px;" id="el9hxc8ceaffj" class="animable"></path><path d="M291.17,195.89c-28.54,37.49-54.36,71.42-73.08,96.02-9.28,12.31-16.79,22.28-22,29.2-2.56,3.45-4.55,6.13-5.92,7.98-.65,.9-1.16,1.6-1.52,2.09-.34,.48-.5,.72-.49,.73,.01,.01,.21-.22,.57-.67,.38-.48,.91-1.16,1.6-2.03,1.4-1.83,3.44-4.48,6.05-7.89,5.22-6.92,12.74-16.88,22.02-29.19,18.49-24.76,43.99-58.91,72.18-96.66,28.14-37.75,53.68-71.89,72.32-96.5,9.32-12.31,16.91-22.23,22.21-29.05,2.65-3.41,4.73-6.05,6.16-7.82,1.43-1.77,2.22-2.67,2.29-2.62,.07,.05-.58,1.05-1.88,2.91-1.3,1.86-3.26,4.58-5.81,8.06-5.1,6.97-12.55,16.99-21.81,29.33-18.53,24.69-44.33,58.65-72.88,96.1Z" style="fill: rgb(245, 245, 245); transform-origin: 290.862px 195.694px;" id="elekffrrg8jki" class="animable"></path><path d="M299.37,202.82c-34.19,32.72-65.13,62.34-87.56,83.8-11.13,10.76-20.15,19.47-26.41,25.52-3.08,3.02-5.47,5.37-7.13,6.99-.79,.79-1.4,1.4-1.83,1.84-.41,.42-.61,.64-.6,.65,.01,.01,.24-.18,.67-.58,.45-.42,1.08-1.01,1.9-1.77,1.68-1.6,4.11-3.91,7.24-6.88,6.26-6.04,15.28-14.75,26.42-25.5,22.23-21.66,52.89-51.55,86.77-84.57,33.84-33.03,64.53-62.9,86.89-84.39,11.17-10.75,20.26-19.41,26.59-25.34,3.16-2.97,5.64-5.26,7.33-6.79,1.7-1.53,2.62-2.31,2.68-2.25,.06,.06-.74,.95-2.33,2.59-1.59,1.64-3.96,4.03-7.03,7.08-6.15,6.11-15.11,14.89-26.24,25.68-22.25,21.59-53.17,51.23-87.37,83.91Z" style="fill: rgb(245, 245, 245); transform-origin: 299.086px 202.584px;" id="el6691heco8wl" class="animable"></path><path d="M306.36,210.9c-39.01,27.16-74.32,51.73-99.9,69.54-12.72,8.95-23.02,16.19-30.17,21.22-3.52,2.52-6.27,4.48-8.16,5.83-.91,.66-1.6,1.17-2.1,1.54-.47,.35-.71,.54-.69,.55,.01,.01,.27-.14,.76-.47,.51-.35,1.23-.83,2.16-1.46,1.91-1.32,4.69-3.24,8.25-5.7,7.15-5.02,17.46-12.26,30.18-21.2,25.42-18.04,60.49-42.92,99.25-70.43,38.71-27.52,73.81-52.38,99.33-70.23,12.76-8.93,23.12-16.11,30.32-21.02,3.6-2.45,6.41-4.34,8.33-5.6,1.92-1.26,2.96-1.88,3.01-1.81,.05,.07-.88,.83-2.71,2.21-1.83,1.38-4.55,3.38-8.08,5.94-7.05,5.11-17.31,12.42-30.03,21.4-25.44,17.96-60.73,42.57-99.74,69.68Z" style="fill: rgb(245, 245, 245); transform-origin: 306.135px 210.618px;" id="elxb230t4mud" class="animable"></path><path d="M311.96,219.93c-42.9,20.89-81.72,39.8-109.86,53.51-14,6.9-25.34,12.49-33.21,16.37-3.88,1.95-6.91,3.47-8.99,4.52-1,.52-1.77,.92-2.33,1.2-.52,.28-.78,.43-.77,.44,0,.02,.29-.1,.83-.35,.56-.26,1.35-.63,2.37-1.11,2.1-1.02,5.15-2.49,9.07-4.38,7.87-3.88,19.21-9.46,33.22-16.35,28.01-13.95,66.65-33.21,109.36-54.48,42.66-21.3,81.33-40.52,109.41-54.28,14.04-6.88,25.43-12.4,33.33-16.15,3.95-1.88,7.03-3.31,9.13-4.26,2.1-.95,3.22-1.41,3.26-1.33,.04,.08-1.01,.68-3.03,1.77-2.03,1.09-5.04,2.65-8.93,4.64-7.79,3.97-19.1,9.64-33.11,16.57-28.01,13.88-66.83,32.82-109.72,53.67Z" style="fill: rgb(245, 245, 245); transform-origin: 311.79px 219.622px;" id="el45fvev4885p" class="animable"></path><path d="M316.04,229.72c-45.75,14.07-87.15,26.81-117.16,36.04-14.95,4.68-27.05,8.46-35.45,11.09-4.15,1.33-7.38,2.37-9.61,3.09-1.07,.36-1.9,.63-2.49,.83-.56,.19-.84,.3-.84,.32,0,.02,.3-.06,.87-.21,.6-.18,1.44-.42,2.52-.74,2.24-.68,5.49-1.67,9.66-2.94,8.4-2.62,20.51-6.4,35.46-11.07,29.92-9.5,71.2-22.6,116.81-37.08,45.58-14.51,86.88-27.58,116.83-36.87,14.98-4.65,27.12-8.35,35.53-10.85,4.2-1.25,7.48-2.2,9.71-2.81,2.23-.62,3.41-.9,3.44-.82,.03,.08-1.1,.52-3.28,1.29-2.18,.76-5.41,1.85-9.57,3.21-8.33,2.73-20.42,6.6-35.38,11.31-29.91,9.42-71.31,22.19-117.05,36.22Z" style="fill: rgb(245, 245, 245); transform-origin: 315.905px 229.39px;" id="el3cvo9usodvf" class="animable"></path><path d="M318.48,240c-47.46,6.9-90.4,13.15-121.53,17.68-15.52,2.33-28.08,4.22-36.8,5.53-4.32,.68-7.68,1.21-9.99,1.58-1.12,.19-1.98,.34-2.59,.44-.58,.11-.88,.17-.88,.19,0,.02,.31,0,.89-.08,.62-.08,1.49-.19,2.61-.34,2.32-.33,5.69-.81,10.02-1.43,8.72-1.31,21.29-3.19,36.81-5.51,31.09-4.8,73.97-11.43,121.36-18.76,47.36-7.36,90.26-13.95,121.35-18.54,15.54-2.3,28.13-4.1,36.84-5.29,4.35-.59,7.74-1.03,10.04-1.29,2.3-.27,3.51-.36,3.53-.28,.01,.08-1.17,.35-3.45,.77-2.28,.42-5.64,1-9.97,1.71-8.67,1.42-21.23,3.39-36.77,5.75-31.06,4.73-74.01,11.01-121.45,17.87Z" style="fill: rgb(245, 245, 245); transform-origin: 318.415px 239.65px;" id="el0ogfk5z3worm" class="animable"></path></g><g id="elbkg16iriy0e" class="animable" style="transform-origin: 322.18px 418.031px;"><path d="M361.45,416.71c-27.62-5.86-49.2,8.34-49.2,8.34,21.49,10.45,49.2-8.34,49.2-8.34Z" style="fill: rgb(224, 224, 224); transform-origin: 336.85px 421.753px;" id="el7gwh50ycbyk" class="animable"></path><path d="M282.91,415.32c-.01,17.33,11.63,29.32,11.63,29.32,3.66-13.97-11.63-29.32-11.63-29.32Z" style="fill: rgb(224, 224, 224); transform-origin: 289.008px 429.98px;" id="ellnscfo3th4" class="animable"></path><path d="M301.12,442.81c20.43,4,37.24-6.84,37.24-6.84-15.62-7.5-37.24,6.84-37.24,6.84Z" style="fill: rgb(224, 224, 224); transform-origin: 319.74px 438.748px;" id="el1b7q57q3kda" class="animable"></path><path d="M323.72,406.97c-.32-.22-9.22,11.92-19.88,27.13-10.67,15.21-19.06,27.71-18.74,27.93,.32,.22,9.22-11.92,19.89-27.13,10.66-15.2,19.05-27.71,18.74-27.93Z" style="fill: rgb(224, 224, 224); transform-origin: 304.415px 434.5px;" id="elh89nuh8z27q" class="animable"></path><path d="M354.11,374.03s-30.38,10.71-34.25,39.23c0,0,26.05-8.78,34.25-39.23Z" style="fill: rgb(224, 224, 224); transform-origin: 336.985px 393.645px;" id="eln0moe7med1g" class="animable"></path><path d="M308.39,377.34s-18,26.71-4.11,51.92c0,0,15.68-22.58,4.11-51.92Z" style="fill: rgb(224, 224, 224); transform-origin: 305.832px 403.3px;" id="elawglzkmv0wc" class="animable"></path></g><g id="elfdoznijpqxa" class="animable" style="transform-origin: 170.067px 409.076px;"><path d="M170.77,357.53c-9.3,35.93,8.09,65.08,8.09,65.08,14.97-27.6-8.09-65.08-8.09-65.08Z" style="fill: rgb(224, 224, 224); transform-origin: 175.973px 390.07px;" id="elzb1np1shc08" class="animable"></path><path d="M164.37,460.57c22.75,1.02,39.18-13.56,39.18-13.56-18.13-5.62-39.18,13.56-39.18,13.56Z" style="fill: rgb(224, 224, 224); transform-origin: 183.96px 453.3px;" id="elsa1udzyx6og" class="animable"></path><path d="M201.52,438.27c6.45-26.59-6.81-49.29-6.81-49.29-10.76,20.07,6.81,49.29,6.81,49.29Z" style="fill: rgb(224, 224, 224); transform-origin: 197.256px 413.625px;" id="elzmbk60l9ljc" class="animable"></path><path d="M155.78,406.5c-.31,.4,15.12,12.8,34.46,27.69,19.35,14.89,35.28,26.63,35.59,26.23,.31-.4-15.12-12.8-34.46-27.69-19.34-14.89-35.27-26.63-35.58-26.23Z" style="fill: rgb(224, 224, 224); transform-origin: 190.805px 433.46px;" id="elsq22i6hw1ls" class="animable"></path><path d="M114.3,364.68s12.3,40.51,49.52,47.25c0,0-10.02-34.71-49.52-47.25Z" style="fill: rgb(224, 224, 224); transform-origin: 139.06px 388.305px;" id="eldyzjw8me3h9" class="animable"></path><path d="M115.99,424.91s34.02,25.19,67.93,8.42c0,0-28.73-21.9-67.93-8.42Z" style="fill: rgb(224, 224, 224); transform-origin: 149.955px 429.807px;" id="elwe6rpgt75te" class="animable"></path></g><g id="elrml8o6f9yyh" class="animable" style="transform-origin: 386.69px 247.44px;"><circle cx="386.69" cy="247.44" r="58.67" style="fill: rgb(245, 245, 245); transform-origin: 386.69px 247.44px;" id="el6jc37ftrduo" class="animable"></circle><path d="M366.74,240.4c0,.22-.02,.45-.03,.67-.03,.49-.01,.09,0-.01-.06,.35-.14,.7-.25,1.05-.06,.2-.13,.4-.21,.6,.04-.1,.21-.42,0-.02-.2,.37-.41,.73-.65,1.08-.34,.51,.22-.14-.06,.07-.13,.1-.24,.27-.35,.39-.1,.1-.2,.2-.3,.29-.06,.06-.59,.49-.14,.14-.28,.21-.57,.4-.88,.57-.12,.07-.25,.13-.37,.2-.26,.12-.25,.12,.02,0-.1,.04-.2,.08-.3,.11-.34,.11-.68,.22-1.03,.29-.13,.03-.62,.09-.09,.03-.18,.02-.37,.03-.55,.04-.37,.02-.74-.02-1.11-.03-.41-.02,.57,.13-.09-.02-.21-.05-.42-.09-.63-.15-.21-.06-.41-.13-.61-.2-.12-.04-.4-.21,0,0-.31-.17-.62-.31-.92-.5-.15-.09-.28-.2-.43-.3-.32-.2,.39,.38-.07-.07-.3-.3-.58-.59-.87-.9,.31,.33,.08,.11,0,0-.12-.17-.24-.35-.34-.53-.07-.12-.14-.24-.21-.37-.04-.08-.32-.71-.1-.17-.13-.33-.24-.67-.33-1.02-.04-.14-.06-.28-.09-.42-.05-.29-.05-.29,0,.02-.01-.11-.02-.22-.03-.33-.02-.33-.03-.67,0-1.01,0-.1,.12-.8,0-.21,.03-.14,.05-.28,.08-.43,.08-.35,.19-.69,.3-1.03,.21-.63-.25,.4,.08-.18,.1-.18,.19-.37,.3-.55,.09-.15,.19-.29,.28-.44,.07-.12,.38-.45,.05-.08,.23-.26,.46-.52,.72-.76,0,0,.51-.44,.22-.21-.29,.23,.25-.18,.25-.18,.35-.24,.72-.43,1.1-.62-.09,.04-.46,.16,0,0,.2-.07,.4-.14,.61-.2,.14-.04,.28-.07,.42-.1,0,0,.69-.13,.31-.07-.38,.06,.33-.02,.33-.02,.19-.01,.37-.01,.56-.01,.19,0,.37,.02,.56,.03,.59,.02-.32-.1,.2,.03,.42,.11,.83,.21,1.24,.35,.59,.19-.2-.18,.09,.04,.19,.14,.45,.23,.65,.35,.12,.07,.24,.15,.35,.22,.12,.08,.23,.16,.34,.24-.23-.18-.24-.18-.02,0,.25,.25,.49,.49,.74,.74,.46,.47-.24-.4,.13,.15,.12,.18,.24,.35,.34,.53,.11,.18,.2,.37,.3,.55,.26,.45-.09-.36,.08,.18,.14,.41,.24,.82,.35,1.24,.03,.11,.05,.48,0-.02,.03,.3,.04,.59,.05,.89,.02,1.31,1.14,2.56,2.5,2.5,1.34-.06,2.52-1.1,2.5-2.5-.06-4.46-2.82-8.33-6.98-9.9-3.97-1.5-8.84-.21-11.54,3.08-2.81,3.44-3.37,8.31-1.05,12.19,2.31,3.86,6.77,5.72,11.14,4.93,4.89-.88,8.36-5.44,8.43-10.3,.02-1.31-1.16-2.56-2.5-2.5-1.37,.06-2.48,1.1-2.5,2.5Z" style="fill: rgb(224, 224, 224); transform-origin: 361.222px 240.309px;" id="el6q0hpnqa9c4" class="animable"></path><path d="M419.28,240.14c0,.22-.02,.45-.03,.67-.03,.49-.01,.09,0-.01-.06,.35-.14,.7-.25,1.05-.06,.2-.13,.4-.21,.6,.04-.1,.21-.42,0-.02-.2,.37-.41,.73-.65,1.08-.34,.51,.22-.14-.06,.07-.13,.1-.24,.27-.35,.39-.1,.1-.2,.2-.3,.29-.06,.06-.59,.49-.14,.14-.28,.21-.57,.4-.88,.57-.12,.07-.25,.13-.37,.2-.26,.12-.25,.12,.02,0-.1,.04-.2,.08-.3,.11-.34,.11-.68,.22-1.03,.29-.13,.03-.62,.09-.09,.03-.18,.02-.37,.03-.55,.04-.37,.02-.74-.02-1.11-.03-.41-.02,.57,.13-.09-.02-.21-.05-.42-.09-.63-.15-.21-.06-.41-.13-.61-.2-.12-.04-.4-.21,0,0-.31-.17-.62-.31-.92-.5-.15-.09-.28-.2-.43-.3-.32-.2,.39,.38-.07-.07-.3-.3-.58-.59-.87-.9,.31,.33,.08,.11,0,0-.12-.17-.24-.35-.34-.53-.07-.12-.14-.24-.21-.37-.04-.07-.32-.71-.1-.17-.13-.33-.24-.67-.33-1.02-.04-.14-.06-.28-.09-.42-.05-.29-.05-.29,0,.02-.01-.11-.02-.22-.03-.33-.02-.33-.03-.67,0-1.01,0-.1,.12-.8,0-.21,.03-.14,.05-.28,.08-.43,.08-.35,.19-.69,.3-1.03,.21-.63-.25,.4,.08-.18,.1-.18,.19-.37,.3-.55,.09-.15,.19-.29,.28-.44,.07-.12,.38-.45,.05-.08,.23-.26,.46-.52,.72-.76,0,0,.51-.44,.22-.21-.29,.23,.25-.18,.25-.18,.35-.24,.72-.43,1.1-.62-.09,.04-.46,.16,0,0,.2-.07,.4-.14,.61-.2,.14-.04,.28-.07,.42-.1,0,0,.69-.13,.31-.07-.38,.06,.33-.02,.33-.02,.19-.01,.37-.01,.56-.01,.19,0,.37,.02,.56,.03,.59,.02-.32-.1,.2,.03,.42,.11,.83,.21,1.24,.35,.59,.19-.2-.18,.09,.04,.19,.14,.45,.23,.65,.35,.12,.07,.24,.15,.35,.22,.12,.08,.23,.16,.34,.24-.23-.18-.24-.18-.02,0,.25,.25,.49,.49,.74,.74,.46,.47-.24-.4,.13,.15,.12,.18,.24,.35,.34,.53,.11,.18,.2,.37,.3,.55,.26,.45-.09-.36,.08,.18,.14,.41,.24,.82,.35,1.24,.03,.11,.05,.48,0-.02,.03,.3,.04,.59,.05,.89,.02,1.31,1.14,2.56,2.5,2.5,1.34-.06,2.52-1.1,2.5-2.5-.06-4.46-2.82-8.33-6.98-9.9-3.97-1.5-8.84-.21-11.54,3.08-2.81,3.44-3.37,8.31-1.05,12.19,2.31,3.86,6.77,5.72,11.14,4.93,4.89-.88,8.36-5.44,8.43-10.3,.02-1.31-1.16-2.56-2.5-2.5-1.37,.06-2.48,1.1-2.5,2.5Z" style="fill: rgb(224, 224, 224); transform-origin: 413.762px 240.049px;" id="elzghzoziixpq" class="animable"></path><path d="M374.16,249.05c-1.29,2.32-1.28,5.08-.1,7.45,1.25,2.5,3.81,3.95,6.54,4.16,2.6,.2,5.31-.92,6.97-2.93,1.86-2.25,2.46-4.97,2.04-7.83-.35-2.4-4.44-2.37-4.82,0-.41,2.54,.16,4.94,1.84,6.93,1.51,1.78,3.97,2.78,6.3,2.59,5.08-.41,8.69-5.41,7.03-10.37-.43-1.28-1.72-2.12-3.08-1.75-1.25,.34-2.18,1.79-1.75,3.08,.59,1.76-.2,3.85-2.38,4.06-1.87,.18-3.4-1.62-3.14-3.22h-4.82c.33,2.25-1.48,4.55-3.88,4.44-1.01-.04-1.93-.58-2.4-1.45-.46-.85-.49-1.84-.04-2.65,1.56-2.82-2.75-5.34-4.32-2.52h0Z" style="fill: rgb(224, 224, 224); transform-origin: 386.776px 253.948px;" id="elk6xsnqgtm9" class="animable"></path><path d="M364.72,258.19c0-.59,.15-1.17,.46-1.7v3.39c-1.04,2.04-3.98,3.51-7.44,3.51-4.36,0-7.9-2.33-7.9-5.21s3.54-5.21,7.9-5.21c3.46,0,6.4,1.47,7.44,3.51v3.4c-.31-.53-.46-1.1-.46-1.7Z" style="fill: rgb(235, 235, 235); transform-origin: 357.51px 258.18px;" id="elmfs6cd37cdt" class="animable"></path><path d="M421.9,258.88c0-.59,.15-1.17,.46-1.7v3.39c-1.04,2.04-3.98,3.51-7.44,3.51-4.36,0-7.9-2.33-7.9-5.21s3.54-5.21,7.9-5.21c3.46,0,6.4,1.47,7.44,3.51v3.4c-.31-.53-.46-1.1-.46-1.7Z" style="fill: rgb(235, 235, 235); transform-origin: 414.69px 258.87px;" id="el2xugism9nbj" class="animable"></path></g><g id="elvv60q9pu3t" class="animable" style="transform-origin: 112.12px 274.56px;"><circle cx="112.12" cy="274.56" r="62.97" style="fill: rgb(245, 245, 245); transform-origin: 112.12px 274.56px;" id="elrvyicoprdu" class="animable"></circle><path d="M79.19,267.02c0-.32,.02-.64,.05-.95-.05,.51-.03,.21,.05-.12,.05-.23,.11-.45,.18-.67,.03-.09,.36-.89,.17-.5-.2,.41,.21-.38,.25-.45,.11-.2,.23-.39,.35-.58,.18-.28,.4-.47,.07-.11,.2-.22,.39-.45,.61-.66,.16-.16,.34-.29,.5-.45-.48,.48-.06,.04,.11-.07,.22-.15,.44-.28,.67-.41,.15-.08,.93-.41,.2-.13,.43-.17,.87-.31,1.32-.41,.15-.03,.3-.06,.46-.09-.41,.05-.45,.06-.1,.02,.24,0,.48-.03,.72-.03,.24,0,.48,.02,.72,.03,.63,.03-.55-.12,.24,.04,.49,.1,.96,.25,1.43,.43-.7-.27-.06,0,.1,.08,.27,.14,.52,.29,.77,.46,.15,.1,.64,.55,.11,.07,.17,.15,.34,.29,.5,.45,.18,.17,.34,.43,.54,.57,.14,.17,.1,.11-.12-.17,.09,.12,.18,.24,.26,.37,.25,.38,.46,.78,.66,1.18-.36-.71,.05,.17,.1,.34,.07,.22,.13,.44,.18,.67,.04,.16,.09,.88,.05,.12,.02,.32,.05,.63,.05,.95,.02,1.58,1.37,3.09,3.02,3.02,1.62-.07,3.04-1.33,3.02-3.02-.07-4.95-3.13-9.21-7.73-10.94-4.33-1.63-9.66-.24-12.63,3.3-1.82,2.18-2.84,4.79-2.88,7.64-.02,1.58,1.4,3.09,3.02,3.02,1.65-.07,2.99-1.32,3.02-3.02h0Z" style="fill: rgb(224, 224, 224); transform-origin: 84.81px 262.702px;" id="elb1evzrw5kug" class="animable"></path><path d="M135.58,266.73c0-.32,.02-.64,.05-.95-.05,.51-.03,.21,.05-.12,.05-.23,.11-.45,.18-.67,.03-.09,.36-.89,.17-.5-.2,.41,.21-.38,.25-.45,.11-.2,.23-.39,.35-.58,.18-.28,.4-.47,.07-.11,.2-.22,.39-.45,.61-.66,.16-.16,.34-.29,.5-.45-.48,.48-.06,.04,.11-.07,.22-.15,.44-.28,.67-.41,.15-.08,.93-.41,.2-.13,.43-.17,.87-.31,1.32-.41,.15-.03,.3-.06,.46-.09-.41,.05-.45,.06-.1,.02,.24,0,.48-.03,.72-.03,.24,0,.48,.02,.72,.03,.63,.03-.55-.12,.24,.04,.49,.1,.96,.25,1.43,.43-.7-.27-.05,0,.1,.08,.27,.14,.52,.29,.77,.46,.15,.1,.64,.55,.11,.07,.17,.15,.34,.29,.5,.45,.18,.17,.34,.43,.54,.57,.14,.17,.1,.11-.12-.17,.09,.12,.18,.24,.26,.37,.25,.38,.46,.78,.66,1.18-.36-.71,.05,.17,.1,.34,.07,.22,.13,.44,.18,.67,.04,.16,.09,.88,.05,.12,.02,.32,.05,.63,.05,.95,.02,1.58,1.37,3.09,3.02,3.02,1.62-.07,3.04-1.33,3.02-3.02-.07-4.95-3.13-9.21-7.74-10.94-4.33-1.63-9.66-.24-12.63,3.3-1.82,2.18-2.84,4.79-2.88,7.64-.02,1.58,1.4,3.09,3.02,3.02,1.65-.07,2.99-1.32,3.02-3.02h0Z" style="fill: rgb(224, 224, 224); transform-origin: 141.195px 262.412px;" id="el5rjavx4blnu" class="animable"></path><path d="M98.39,276.13c-1.45,2.6-1.43,5.68-.1,8.33,1.4,2.79,4.26,4.4,7.31,4.63,2.87,.22,5.88-1.02,7.72-3.24,2.09-2.51,2.74-5.53,2.27-8.72-.43-2.9-5.36-2.86-5.82,0-.46,2.85,.17,5.53,2.06,7.76,1.67,1.97,4.42,3.09,6.99,2.88,5.65-.45,9.72-6.02,7.87-11.55-.52-1.54-2.08-2.55-3.71-2.11-1.51,.41-2.63,2.16-2.11,3.71,.62,1.86-.23,3.75-2.28,3.95,.38-.04-.93-.04-.54,0,0,0-.7-.15-.91-.24-.16-.07-.52-.32-.83-.66-.25-.28-.4-.52-.52-.88-.01-.04-.24-.95-.16-.46-.02-.14,.02-1.22-.04-.8h-5.82c-.05-.35-.01,.72-.02,.86-.03,.38-.04,.44-.02,.19-.04,.22-.1,.43-.16,.65-.16,.54-.43,1.04-.62,1.29-.49,.62-.71,.82-1.47,1.15,.21-.09,.14-.07-.21,.05-.21,.06-.43,.12-.65,.16,.37-.06-.56,0-.69,0-.21-.02-.22,0-.02,.03-.22-.04-.43-.08-.65-.14-.35-.13-.42-.14-.21-.04-.2-.09-.39-.2-.58-.31-.44-.25-.49-.39-.83-.93-.16-.33-.18-.36-.08-.12-.07-.19-.13-.39-.18-.59-.19-.53-.07,.19-.07-.41,0-.2,0-.41,0-.61-.06,.3-.05,.26,.02-.1,.05-.2,.1-.39,.17-.58-.1,.25-.07,.22,.09-.11,1.89-3.4-3.32-6.44-5.21-3.04h0Z" style="fill: rgb(224, 224, 224); transform-origin: 112.22px 281.561px;" id="elfio5fj45ggg" class="animable"></path><path d="M88.55,286.1c0-.72,.16-1.41,.49-2.05v4.1c-1.11,2.46-4.27,4.23-7.98,4.23-4.68,0-8.48-2.81-8.48-6.28s3.8-6.28,8.48-6.28c3.71,0,6.87,1.77,7.98,4.23v4.1c-.33-.64-.49-1.33-.49-2.05Z" style="fill: rgb(235, 235, 235); transform-origin: 80.81px 286.1px;" id="elvrwn7mg3c8" class="animable"></path><path d="M149.92,286.85c0-.72,.16-1.41,.49-2.05v4.1c-1.11,2.46-4.27,4.23-7.98,4.23-4.68,0-8.48-2.81-8.48-6.28s3.79-6.28,8.48-6.28c3.71,0,6.87,1.77,7.98,4.23v4.1c-.33-.64-.49-1.33-.49-2.05Z" style="fill: rgb(235, 235, 235); transform-origin: 142.18px 286.85px;" id="ele4r6g1s9ssl" class="animable"></path></g><g id="elmmuy4s4kdq" class="animable" style="transform-origin: 163.53px 71.38px;"><g id="elgu17e9pvqb"><circle cx="163.53" cy="71.38" r="48.71" style="fill: rgb(245, 245, 245); transform-origin: 163.53px 71.38px; transform: rotate(-21.7deg);" class="animable"></circle></g><path d="M135,59.63c-.39,4.09-.25,9.28,3.21,12.12,2.13,1.74,4.71,2.21,7.26,1.1,2.36-1.02,3.79-3.24,4.73-5.53,1.02-2.49,1.42-5.28,1.16-7.96-.12-1.23-1-2.43-2.37-2.37-1.18,.05-2.5,1.05-2.37,2.37,.09,.98,.11,1.97,.01,2.95-.02,.17-.09,.63-.02,.21-.04,.24-.08,.49-.13,.73-.1,.48-.22,.96-.36,1.43-.07,.24-.15,.47-.23,.7-.04,.1-.07,.2-.11,.3-.03,.07-.2,.48-.07,.19,.11-.26-.12,.25-.16,.33-.11,.23-.23,.45-.36,.68-.11,.19-.24,.38-.36,.56-.25,.37,.2-.2-.1,.12-.15,.16-.3,.33-.46,.48-.07,.07-.14,.13-.21,.19,.23-.22,.14-.1-.06,.03-.16,.11-.32,.2-.49,.29-.07,.04-.44,.17-.15,.08,.28-.09-.03,0-.07,.01-.1,.03-.47,.19-.55,.13,.09,.05,.41-.02,.06-.03-.11,0-.22,0-.34,0-.31,0-.04-.12,.14,.03-.04-.03-.19-.04-.24-.05-.15-.04-.4-.18-.55-.18,.03,0,.4,.2,.19,.07-.07-.04-.15-.08-.22-.12-.07-.04-.14-.09-.21-.13-.38-.24-.01-.1,0,.03,0-.07-.32-.28-.38-.34-.14-.14-.27-.3-.41-.44-.19-.19,.12,.12,.1,.14,0,0-.17-.25-.2-.28-.13-.19-.25-.39-.35-.59-.04-.08-.07-.16-.12-.23-.13-.23,.08,.15,.07,.17,.03-.08-.17-.48-.19-.56-.12-.39-.21-.8-.29-1.2-.02-.09-.03-.18-.05-.27-.1-.6,.03,.33,0-.02-.02-.26-.05-.51-.07-.77-.04-.48-.05-.97-.06-1.46,0-.98,.04-1.95,.13-2.92,.12-1.24-1.17-2.42-2.37-2.37-1.38,.06-2.24,1.04-2.37,2.37h0Z" style="fill: rgb(224, 224, 224); transform-origin: 143.143px 65.2184px;" id="elj9ajhasgfag" class="animable"></path><path d="M174.13,60.42c-.22,2.28-.38,4.61,.22,6.85,.57,2.13,1.91,4.07,3.81,5.24,2.12,1.31,4.79,1.27,6.92,0,2.07-1.23,3.3-3.29,4.16-5.47,.94-2.4,1.29-5.1,1.04-7.67-.12-1.23-1-2.43-2.37-2.37-1.18,.05-2.5,1.05-2.37,2.37,.09,.91,.1,1.83,.03,2.74-.02,.21-.04,.42-.06,.63,.05-.42-.01,.04-.04,.2-.09,.48-.2,.97-.33,1.44-.11,.41-.25,.81-.4,1.2-.07,.18-.26,.57-.07,.18-.11,.23-.21,.46-.33,.69-.18,.34-.38,.66-.59,.98-.25,.37,.2-.21-.1,.12-.17,.19-.35,.37-.53,.55-.31,.31,.24-.13-.12,.11-.16,.11-.32,.21-.49,.3-.08,.05-.17,.08-.26,.13-.23,.13,.1-.05,.13-.05-.21,.05-.43,.12-.64,.18-.32,.09,.4,0,.06-.01-.09,0-.18,0-.26,0-.08,0-.17-.01-.25-.01-.26,0,.2,.01,.22,.03-.07-.07-.38-.09-.48-.12-.08-.02-.15-.06-.23-.08-.29-.09,.37,.2,.11,.04-.16-.1-.34-.19-.5-.29-.37-.22,.27,.26-.06-.04-.13-.11-.25-.23-.37-.35-.07-.07-.47-.51-.27-.28,.21,.23-.12-.17-.17-.25-.11-.17-.21-.34-.31-.52-.04-.08-.07-.16-.12-.23-.13-.23,.08,.15,.07,.17,.03-.1-.18-.51-.21-.62-.07-.24-.13-.47-.18-.71-.02-.1-.03-.21-.06-.31-.09-.36,.04,.55-.02-.1-.05-.49-.07-.98-.07-1.48,0-1.07,.11-2.13,.21-3.19,.12-1.24-1.18-2.42-2.37-2.37-1.39,.06-2.24,1.04-2.37,2.37h0Z" style="fill: rgb(224, 224, 224); transform-origin: 182.145px 65.2377px;" id="eldeuvbxth7dw" class="animable"></path><path d="M153.23,74.7c-.04,2.06,.15,4.3,1.29,6.09,1.11,1.75,2.98,3.05,5.09,3.12,2.08,.06,3.88-1.17,5.02-2.82,1.22-1.77,1.41-4,1.55-6.07l-4.65,.63c.92,3.69,3.47,8.8,7.93,8.72,2.18-.04,4.09-1.4,5.19-3.22,1.16-1.92,1.27-4.24,1.31-6.42,.04-3.05-4.7-3.05-4.74,0-.02,1.21,0,2.67-.46,3.68-.11,.23-.25,.48-.41,.68,.22-.27-.58,.49-.27,.26-.05,.04-.64,.37-.35,.22-.29,.06-.33,.08-.12,.06-.27-.02-.35-.01-.21,.02-.09,0-.18-.02-.37-.12-.03-.02-.51-.35-.39-.26-.48-.41-.68-.7-1.02-1.24-.71-1.14-1.17-2.32-1.5-3.63-.28-1.13-1.47-1.87-2.6-1.7-1.21,.18-1.97,1.12-2.05,2.33-.07,1.04-.15,2.32-.56,3.13-.05,.1-.43,.65-.28,.47-.04,.05-.53,.49-.28,.31-.06,.05-.65,.35-.33,.2l-.24,.06c.21-.03,.16-.03-.13-.02,.37,.09-.36-.13-.36-.13,.33,.16-.31-.26-.06-.04-.43-.37-.56-.49-.78-.94-.5-1.03-.47-2.22-.45-3.36,.06-3.05-4.68-3.05-4.74,0h0Z" style="fill: rgb(224, 224, 224); transform-origin: 164.593px 78.3967px;" id="el0lt1fvgq5no" class="animable"></path><path d="M136.65,82.09c-1.33-.28-2.13-1.87-1.78-3.57,.35-1.69,1.72-2.84,3.05-2.57,1.33,.28,2.13,1.87,1.78,3.57-.35,1.69-1.72,2.84-3.05,2.57Z" style="fill: rgb(235, 235, 235); transform-origin: 137.285px 79.02px;" id="ely494i778zv" class="animable"></path><path d="M141.75,82.27c-1.33-.28-2.13-1.87-1.78-3.57,.35-1.69,1.72-2.84,3.05-2.57,1.33,.28,2.13,1.87,1.78,3.57-.35,1.69-1.72,2.84-3.05,2.57Z" style="fill: rgb(235, 235, 235); transform-origin: 142.385px 79.2px;" id="elr8flyyf5qf" class="animable"></path><path d="M147.24,82.61c-1.36-.11-2.35-1.6-2.21-3.32,.14-1.72,1.35-3.03,2.71-2.92,1.36,.11,2.35,1.59,2.21,3.32-.14,1.72-1.35,3.03-2.71,2.92Z" style="fill: rgb(235, 235, 235); transform-origin: 147.49px 79.49px;" id="ely5jsmast6g" class="animable"></path><path d="M180.8,81.78c-1.33-.28-2.13-1.87-1.78-3.57,.35-1.69,1.72-2.84,3.05-2.57,1.33,.28,2.13,1.87,1.78,3.57-.35,1.69-1.72,2.84-3.05,2.57Z" style="fill: rgb(235, 235, 235); transform-origin: 181.435px 78.71px;" id="el3tkbb9u4qxb" class="animable"></path><path d="M185.91,81.95c-1.33-.28-2.13-1.87-1.78-3.57,.35-1.69,1.72-2.84,3.05-2.57,1.33,.28,2.13,1.87,1.78,3.57-.35,1.69-1.72,2.84-3.05,2.57Z" style="fill: rgb(235, 235, 235); transform-origin: 186.545px 78.88px;" id="el0yw6zqm1zpy" class="animable"></path><path d="M191.39,82.29c-1.36-.11-2.35-1.6-2.21-3.32,.14-1.72,1.35-3.03,2.71-2.92,1.36,.11,2.35,1.59,2.21,3.32-.14,1.72-1.35,3.03-2.71,2.92Z" style="fill: rgb(235, 235, 235); transform-origin: 191.64px 79.17px;" id="elueno1oa4xmb" class="animable"></path></g><g id="elpr0r4vjvjf" class="animable" style="transform-origin: 248.305px 211.785px;"><path d="M307.32,47.78l3.99,1.5-3.46,.98c-1.15,.33-2.07,1.21-2.44,2.35l-1.25,3.83-1.54-3.84c-.38-.95-1.15-1.7-2.12-2.05l-3.5-1.27,3.79-1.56c.92-.38,1.64-1.11,2-2.04l1.37-3.56,.98,3.31c.32,1.08,1.13,1.95,2.19,2.35Z" style="fill: rgb(224, 224, 224); transform-origin: 304.155px 49.28px;" id="elabiroyfansd" class="animable"></path><path d="M204.56,375.53l2.73,1.02-2.37,.67c-.79,.22-1.42,.83-1.67,1.61l-.86,2.62-1.05-2.63c-.26-.65-.79-1.16-1.45-1.4l-2.39-.87,2.59-1.07c.63-.26,1.12-.76,1.37-1.4l.94-2.43,.67,2.26c.22,.74,.77,1.34,1.5,1.61Z" style="fill: rgb(224, 224, 224); transform-origin: 202.395px 376.55px;" id="el8jd88my71m7" class="animable"></path><path d="M165.52,186.85l2.73,1.02-2.37,.67c-.79,.22-1.42,.83-1.67,1.61l-.86,2.62-1.05-2.63c-.26-.65-.79-1.16-1.45-1.4l-2.39-.87,2.59-1.07c.63-.26,1.12-.76,1.36-1.4l.94-2.43,.67,2.26c.22,.74,.77,1.34,1.5,1.61Z" style="fill: rgb(224, 224, 224); transform-origin: 163.355px 187.87px;" id="elxib8melwbb" class="animable"></path><path d="M331.2,144.4l3.99,1.5-3.46,.98c-1.15,.33-2.07,1.21-2.44,2.35l-1.25,3.83-1.54-3.84c-.38-.95-1.15-1.7-2.12-2.05l-3.5-1.27,3.79-1.56c.92-.38,1.64-1.11,2-2.04l1.37-3.56,.98,3.31c.32,1.08,1.13,1.95,2.19,2.35Z" style="fill: rgb(224, 224, 224); transform-origin: 328.035px 145.9px;" id="el5smgcixe12w" class="animable"></path><path d="M191.62,224.02l3.99,1.5-3.46,.98c-1.15,.33-2.07,1.21-2.44,2.35l-1.25,3.83-1.54-3.84c-.38-.95-1.15-1.7-2.12-2.05l-3.5-1.27,3.79-1.56c.92-.38,1.64-1.11,2-2.04l1.37-3.56,.98,3.31c.32,1.08,1.13,1.95,2.19,2.35Z" style="fill: rgb(224, 224, 224); transform-origin: 188.455px 225.52px;" id="ele9ckaxa1l98" class="animable"></path><path d="M334.16,332.04l3.99,1.5-3.46,.98c-1.15,.33-2.07,1.21-2.44,2.35l-1.25,3.83-1.54-3.84c-.38-.95-1.15-1.7-2.12-2.05l-3.5-1.27,3.79-1.56c.92-.38,1.64-1.11,2-2.04l1.37-3.56,.98,3.31c.32,1.08,1.13,1.95,2.19,2.35Z" style="fill: rgb(224, 224, 224); transform-origin: 330.995px 333.54px;" id="elsabq0plupal" class="animable"></path><path d="M301.56,70.81l1.5,.56-1.3,.37c-.43,.12-.78,.45-.92,.88l-.47,1.44-.58-1.45c-.14-.36-.43-.64-.8-.77l-1.32-.48,1.43-.59c.35-.14,.62-.42,.75-.77l.52-1.34,.37,1.25c.12,.41,.43,.74,.82,.88Z" style="fill: rgb(224, 224, 224); transform-origin: 300.365px 71.36px;" id="elqw8qite5dxj" class="animable"></path><path d="M173.42,99.33l1.5,.56-1.3,.37c-.43,.12-.78,.45-.92,.88l-.47,1.44-.58-1.45c-.14-.36-.43-.64-.8-.77l-1.32-.48,1.43-.59c.35-.14,.62-.42,.75-.77l.52-1.34,.37,1.25c.12,.41,.43,.74,.82,.88Z" style="fill: rgb(224, 224, 224); transform-origin: 172.225px 99.88px;" id="elpvn564fqo2" class="animable"></path><path d="M280.95,60.41l2.2,.83-1.91,.54c-.64,.18-1.14,.67-1.35,1.3l-.69,2.11-.85-2.12c-.21-.53-.64-.94-1.17-1.13l-1.93-.7,2.09-.86c.51-.21,.9-.62,1.1-1.13l.76-1.96,.54,1.83c.18,.6,.62,1.08,1.21,1.3Z" style="fill: rgb(224, 224, 224); transform-origin: 279.2px 61.24px;" id="elnb8x2uod46p" class="animable"></path></g></g><g id="freepik--Floor--inject-21" class="animable" style="transform-origin: 250px 464.64px;"><path d="M455.9,464.64c0,.14-92.19,.26-205.89,.26s-205.91-.12-205.91-.26,92.17-.26,205.91-.26,205.89,.12,205.89,.26Z" style="fill: rgb(69, 90, 100); transform-origin: 250px 464.64px;" id="elim7b6anb8" class="animable"></path></g><g id="freepik--Speech_Bubble--inject-21" class="animable" style="transform-origin: 335.191px 87.6255px;"><g id="eltj47z5iecn" class="animable" style="transform-origin: 335.191px 87.6255px;"><g id="elz8c6pbbz0yq" class="animable" style="transform-origin: 335.191px 87.6255px;"><path d="M303.02,104.45l9.42,.48c3.09,4.41,7.39,8.04,12.7,10.33,15.25,6.59,32.96-.44,39.54-15.69,6.59-15.25-.44-32.95-15.69-39.54-15.25-6.59-32.95,.44-39.54,15.69-2.75,6.37-3.12,13.16-1.51,19.4h0l-4.91,9.33Z" style="fill: rgb(255, 255, 255); transform-origin: 335.087px 87.645px;" id="elnemee7x5oya" class="animable"></path><path d="M303.02,104.45s.12-.21,.34-.62c.22-.41,.54-1.01,.96-1.79,.84-1.58,2.08-3.89,3.69-6.9h-.16v.02s.09,.06,.14,.04c.04-.02,.06-.07,.05-.11-.95-3.8-1.47-9.01,.02-14.82,.37-1.44,.86-2.92,1.5-4.39,.71-1.44,1.39-2.95,2.36-4.36,1.84-2.87,4.29-5.6,7.35-7.86,3.05-2.26,6.69-4.03,10.7-5.01,4-.98,8.37-1.16,12.71-.34,8.67,1.56,17.09,7.57,21.27,16.34,2.11,4.46,3.2,9.34,2.97,14.08-.18,4.74-1.49,9.31-3.63,13.26-2.13,3.97-5.16,7.26-8.54,9.74-3.39,2.48-7.16,4.14-10.9,5.02-3.75,.88-7.47,.98-10.88,.51-.43-.07-.85-.13-1.27-.2-.42-.06-.84-.13-1.24-.25-.81-.21-1.6-.42-2.38-.62-1.51-.57-3-1.05-4.33-1.74-5.4-2.67-8.99-6.43-11.21-9.57-.02-.02-.04-.04-.07-.04-3.04-.13-5.38-.23-6.98-.3-.79-.03-1.39-.06-1.82-.07-.41-.02-.63-.02-.63-.02,0,0,.19,.02,.59,.04,.42,.03,1.01,.06,1.79,.11,1.61,.09,3.97,.23,7.04,.41l-.07-.04c2.2,3.18,5.8,7,11.23,9.72,1.34,.7,2.84,1.19,4.36,1.78,.79,.21,1.59,.42,2.41,.64,.4,.12,.82,.2,1.25,.26,.42,.07,.85,.14,1.28,.2,3.45,.48,7.21,.4,11-.48,3.79-.88,7.61-2.55,11.05-5.05,3.43-2.5,6.5-5.83,8.67-9.85,2.17-4,3.51-8.63,3.69-13.44,.24-4.81-.86-9.76-3-14.28-.23-.57-.55-1.09-.85-1.62l-.91-1.58-1.05-1.48c-.34-.5-.69-.99-1.1-1.43-.39-.45-.79-.91-1.18-1.36-.38-.46-.85-.84-1.27-1.26-.44-.4-.85-.83-1.31-1.21-.47-.36-.94-.72-1.4-1.09-3.76-2.83-8.1-4.72-12.49-5.53-4.4-.83-8.83-.64-12.88,.37-4.06,1-7.74,2.8-10.82,5.1-3.08,2.29-5.56,5.07-7.41,7.97-.97,1.43-1.66,2.96-2.36,4.42-.64,1.49-1.12,2.98-1.49,4.44-1.48,5.87-.92,11.12,.07,14.94l.17-.07h0c-.02-.06-.08-.08-.13-.05-.02,0-.03,.02-.04,.04-1.58,3.06-2.79,5.41-3.62,7.02-.4,.78-.7,1.37-.91,1.78-.2,.4-.29,.59-.29,.59Z" style="fill: rgb(38, 50, 56); transform-origin: 335.191px 87.6255px;" id="ely36rya51oj" class="animable"></path></g><path d="M322.82,84.23c.21-1.75,1.07-3.37,2.26-4.68,1.16-1.27,2.66-2.28,4.35-2.63,1.79-.37,3.73,.02,5.23,1.07,.89,.62,1.62,1.47,2.12,2.44,.51-.85,1.19-1.59,2.01-2.14,1.52-1.02,3.46-1.39,5.25-.98,1.68,.38,3.17,1.41,4.31,2.7,1.16,1.32,1.99,2.96,2.18,4.71,.23,2.19-.21,4.58-1.36,6.46-1.21,1.98-3.16,3.58-5.17,4.76-3.37,1.99-7.8,4.48-7.8,4.48,0,0-3.7-2.82-7.04-4.86-1.98-1.22-3.9-2.84-5.09-4.84-1.12-1.9-1.52-4.3-1.25-6.48Z" style="fill: rgb(255, 145, 0); transform-origin: 336.664px 88.6017px;" id="elelfqabfkssq" class="animable"></path></g></g><g id="freepik--Character--inject-21" class="animable" style="transform-origin: 246.752px 281.899px;"><g id="eleoxgcknh5dj" class="animable" style="transform-origin: 246.752px 281.899px;"><g id="ellzgqf74jgyd" class="animable" style="transform-origin: 266.402px 142.611px;"><path d="M253.92,129.86l-22.29-47.74c-5.96,8.52-9.2,18.93-9.13,29.33,.04,5.08,.79,10.45-1.41,15.03-2.07,4.31-6.34,7.05-9.55,10.6-5.16,5.72-7.51,13.86-6.18,21.45,13.91,6.18,27.82,12.36,41.73,18.54-.05-15.96,2.26-31.93,6.82-47.22Z" style="fill: rgb(38, 50, 56); transform-origin: 229.457px 129.595px;" id="elbjr0sk93yde" class="animable"></path><g id="el5m7muhvtwrq" class="animable" style="transform-origin: 275.94px 142.823px;"><path d="M315.2,186.53c-1.97-5.8-2.55-12.2-5.91-17.32-2.82-4.29-7.51-7.54-8.75-12.52-1.54-6.17,2.86-12.43,2.28-18.77-.65-7.16-7.22-12.12-10.77-18.37-7.57-13.31-5.99-32.4-15.98-42.39l-31.25,56.78c2.91,26.09,2.96,50.14,8.01,75.9,13.11,4.96,31.73,7.59,45.25,3.93-.7-2.96-1.39-5.93-2.09-8.89,1.38,2.47,4.16,4.31,7.04,4.75,4.21,.64,8.43-.96,12.21-2.92,4.51-2.33,8.74-5.2,12.57-8.53-6.13,.05-10.64-5.87-12.61-11.66Z" style="fill: rgb(38, 50, 56); transform-origin: 286.315px 146.321px;" id="elm7kgqebp4ap" class="animable"></path><g id="el3l5pq0nv1gs"><g style="opacity: 0.3; transform-origin: 303.585px 199.265px;" class="animable"><path d="M285.7,215.44l3.47-.17,3.76-22.34s17.38,6.6,30.88,4.39c-2.97-1.67-4.23-3.34-3.64-5.01l-36.81-9.22,2.35,32.34Z" id="elg1yqtjdxol6" class="animable" style="transform-origin: 303.585px 199.265px;"></path></g></g><g id="el8q1qpxkytbu" class="animable" style="transform-origin: 254.101px 128.062px;"><path d="M282.7,73.1c.48,.8,.35,1.74,.18,2.6-.61,3.16-1.47,6.26-2.56,9.3l-14.36-7.63c3.36-1.8,6.74-3.6,10.38-4.96,1.06-.4,2.17-.76,3.35-.74,1.18,.02,2.45,.52,3.01,1.44Z" style="fill: rgb(255, 145, 0); transform-origin: 274.497px 78.3346px;" id="elsngstvt2w8l" class="animable"></path><g id="elil0n7lps7nm"><g style="opacity: 0.3; transform-origin: 277.69px 78.3237px;" class="animable"><path d="M282.04,76.9c.21-.9,.28-2.04-.48-2.56-.54-.37-1.26-.26-1.9-.13-2.23,.46-4.78,1.52-6.46,2.81,2.4,1.59,4.94,3.39,6.85,5.54,.87-1.8,1.54-3.7,1.98-5.66Z" id="elr9j58sjwni" class="animable" style="transform-origin: 277.69px 78.3237px;"></path></g></g><path d="M231.17,81.42c6.71-7.47,15.45-11.54,25.49-11.24,5.67,.17,7.95,1.45,11.98,2.74,4.03,1.29,7.6,3.64,9.88,7.2,2.7,4.23,4.92,8.93,5.23,13.94,.33,5.14,.65,10.32,.03,15.44-.62,5.12-2.26,10.22-5.47,14.25l-13.18,1.66c-7.23-.09-14.56-.19-21.52-2.16-6.96-1.97-13.62-6.07-17.1-12.4-4.84-8.8-2.06-21.96,4.65-29.43Z" style="fill: rgb(38, 50, 56); transform-origin: 254.101px 97.7873px;" id="el4q6u1sgte99" class="animable"></path><path d="M242.56,81.47l17.74-6.11,4.53,.74c10.24,.51,16.79,12.13,16.47,20.42-.35,9.21-1.14,20.45-2.91,27.17-3.57,13.51-15.28,14.11-15.28,14.11l-2,13.1,3.05,4.37-.11,29.34-21.54,1.35-5.75-37.85,1.3-15.23-.32-46.94c.2-2.51,2.3-4.45,4.82-4.46Z" style="fill: rgb(255, 191, 157); transform-origin: 259.036px 130.66px;" id="eldit8or2wff" class="animable"></path><path d="M258.29,119.94c.13-.72,.56-1.33,1.09-1.75,1.06-.83,2.56-.84,3.61-.04,1.06,.8,1.61,2.38,1.34,3.8h0c-.65,.81-1.62,1.34-2.66,1.38-.16,0-.32,0-.49,0-.79-.06-1.58-.36-2.15-.97-.57-.61-.9-1.54-.75-2.43Z" style="fill: rgb(255, 154, 108); transform-origin: 261.321px 120.444px;" id="el0lrk2iletvvh" class="animable"></path><path d="M275.6,108.01c-.06,.93-.9,1.65-1.88,1.61-.97-.05-1.72-.84-1.66-1.77,.06-.93,.9-1.65,1.88-1.61,.98,.05,1.72,.84,1.66,1.77Z" style="fill: rgb(38, 50, 56); transform-origin: 273.83px 107.93px;" id="el6rhtsfnxv0f" class="animable"></path><path d="M279.18,100.68c-.24,.22-1.77-.6-3.9-.5-2.13,.08-3.67,1.04-3.91,.84-.12-.09,.12-.47,.79-.91,.66-.43,1.79-.87,3.12-.93,1.33-.06,2.46,.28,3.11,.65,.67,.37,.9,.74,.78,.84Z" style="fill: rgb(38, 50, 56); transform-origin: 275.27px 100.11px;" id="elfhebfn9l3ip" class="animable"></path><path d="M265.31,115.72c0-.11,1.2-.19,3.14-.24,.49,0,.96-.05,1.07-.37,.15-.34,0-.88-.18-1.47-.34-1.22-.69-2.49-1.06-3.83-1.46-5.45-2.46-9.91-2.24-9.97,.22-.06,1.58,4.31,3.04,9.76,.35,1.34,.68,2.62,1,3.85,.13,.57,.38,1.22,.06,1.93-.17,.35-.55,.57-.87,.63-.32,.06-.59,.04-.83,.03-1.93-.09-3.13-.2-3.12-.31Z" style="fill: rgb(38, 50, 56); transform-origin: 267.803px 107.945px;" id="el6i6psz3z8kn" class="animable"></path><path d="M263.6,137.43s-9.31-.34-17.91-6.77c0,0,3.5,10.01,17.38,10.12l.53-3.35Z" style="fill: rgb(255, 154, 108); transform-origin: 254.645px 135.72px;" id="eljpqgll0dfeo" class="animable"></path><path d="M259.59,116.46c.31,.01,.11,2.07,1.72,3.71,1.61,1.64,3.83,1.64,3.82,1.92,.02,.13-.53,.35-1.46,.28-.91-.06-2.21-.49-3.2-1.49-.99-1-1.33-2.25-1.31-3.1,0-.87,.29-1.35,.43-1.33Z" style="fill: rgb(38, 50, 56); transform-origin: 262.145px 119.416px;" id="el8b1ungq4e1u" class="animable"></path><path d="M277.87,94.69c-.37,.43-1.79-.03-3.5-.06-1.71-.09-3.16,.27-3.49-.18-.15-.22,.09-.65,.72-1.06,.63-.4,1.67-.73,2.85-.69,1.18,.04,2.19,.44,2.79,.89,.6,.45,.8,.89,.64,1.11Z" style="fill: rgb(38, 50, 56); transform-origin: 274.385px 93.7847px;" id="elnfx4zv7z16m" class="animable"></path><path d="M252.94,104.4c.16,.26,1.79,.12,3.72,.94,1.93,.8,3.07,2.12,3.35,2.03,.13-.03,.02-.43-.47-1.01-.48-.58-1.4-1.33-2.6-1.84-1.2-.51-2.34-.62-3.04-.54-.72,.08-1.04,.29-.96,.42Z" style="fill: rgb(38, 50, 56); transform-origin: 256.494px 105.665px;" id="elyrin9gbu4ok" class="animable"></path><path d="M253.31,98.46c.25,.51,1.79,.46,3.5,.9,1.73,.38,3.08,1.12,3.53,.77,.2-.17,.09-.65-.44-1.22-.52-.56-1.47-1.16-2.66-1.44-1.18-.28-2.3-.17-3.01,.1-.72,.27-1.03,.65-.93,.89Z" style="fill: rgb(38, 50, 56); transform-origin: 256.858px 98.764px;" id="eladf79e4l0w7" class="animable"></path><path d="M239.29,109.59c.1-1.02-.84-3.55-1.83-3.81-2.66-.69-7.54-.97-8.28,5.88-1.01,9.36,8.6,8.44,8.65,8.18,.04-.21,1.12-6.7,1.47-10.24Z" style="fill: rgb(255, 191, 157); transform-origin: 234.203px 112.717px;" id="elqqxxcznokj" class="animable"></path><path d="M235.6,116.13s-.18,.1-.46,.19c-.28,.09-.75,.13-1.22-.11-.95-.47-1.61-2.13-1.48-3.82,.07-.85,.33-1.65,.71-2.29,.36-.65,.85-1.08,1.36-1.12,.51-.06,.83,.28,.91,.55,.1,.28,.02,.46,.07,.48,.02,.03,.22-.13,.18-.53-.02-.19-.1-.42-.31-.63-.2-.21-.53-.34-.88-.34-.73-.03-1.45,.57-1.86,1.27-.45,.7-.77,1.59-.85,2.55-.14,1.89,.63,3.76,1.94,4.3,.64,.24,1.21,.1,1.52-.09,.31-.2,.39-.4,.36-.42Z" style="fill: rgb(255, 154, 108); transform-origin: 233.714px 112.633px;" id="elrrir9n36f8p" class="animable"></path><path d="M237.07,105.78l2.27,2.58c10.76-9.38,32.03-33.13,30.84-31.71,0,0-6.93-3.23-14.65-2.28-7.72,.95-22.43,4.11-22.62,13.15-.19,9.04,4.16,18.25,4.16,18.25Z" style="fill: rgb(38, 50, 56); transform-origin: 251.566px 91.2776px;" id="elhk6hvraosao" class="animable"></path></g></g><path d="M241.98,75.64c4.08-3.81,9.75-6.19,15.48-5.87l8.59,1.88c-5.61-1.22-11.63,.35-16.33,3.64s-8.12,8.2-10.24,13.54c-2.11,5.34-2.68,10.95-2.9,16.68l-2.91-.02c-.73-5.45-.74-10.19,.46-15.54,1.19-5.36,3.76-10.5,7.84-14.31Z" style="fill: rgb(255, 145, 0); transform-origin: 249.608px 87.6256px;" id="el65qb832s6ef" class="animable"></path><path d="M233.17,71.67c.85-.4,2.73-.31,3.59-.18,3.96,.6,6.67,.83,9.94,2.05l-11.07,15.23c-1.43-3.53-2.87-7.08-3.84-10.85-.28-1.09-.53-2.24-.38-3.41,.15-1.17,.77-2.38,1.75-2.84Z" style="fill: rgb(255, 145, 0); transform-origin: 239.032px 80.0749px;" id="elo3cmff2r93" class="animable"></path><path d="M245.29,72.97c.11,.12-2.38,2.41-4.84,5.73-2.49,3.31-3.97,6.35-4.12,6.28-.06-.03,.24-.82,.86-2.05,.62-1.22,1.59-2.86,2.84-4.54,1.25-1.68,2.55-3.07,3.54-4.02,.99-.94,1.67-1.45,1.72-1.41Z" style="fill: rgb(38, 50, 56); transform-origin: 240.808px 78.9695px;" id="elgw0cc7901h" class="animable"></path><g id="el2q3n5b2xxpa"><g style="opacity: 0.3; transform-origin: 238.064px 78.7147px;" class="animable"><path d="M236.53,74.35c-.91-.14-2.05-.14-2.52,.65-.33,.56-.17,1.27,0,1.9,.61,2.19,1.84,4.66,3.24,6.25,1.42-2.5,3.05-5.16,5.06-7.21-1.86-.75-3.8-1.28-5.78-1.6Z" id="elacca377kz7" class="animable" style="transform-origin: 238.064px 78.7147px;"></path></g></g></g><g id="elsr7c3ramtx" class="animable" style="transform-origin: 258.64px 402.544px;"><path d="M308.61,311.03c-1.54,2.5-20.51,57.64-22.56,70.36-2.05,12.72-3.3,25.37-2.88,35.43,.41,10.05-8.4,56.95-8.4,56.95l-16.37-1.74s-1.78-44.05-.24-59.46c1.54-15.41,1.44-25.64,1.44-25.64l-2.05-65.43,51.08-10.46Z" style="fill: rgb(255, 191, 157); transform-origin: 283.081px 392.4px;" id="elfwzhqofu8eu" class="animable"></path><g id="elaunt110n5lh" class="animable" style="transform-origin: 237.215px 395.685px;"><path d="M215.68,321.35c0,.75,20.42,62.13,19.92,65.61-.5,3.49-14.04,16.05-18.28,31.98-4.25,16.02-5.79,20.99-6.91,49.16l12.29,3.07c-.25-1,18.13-46.23,27.34-59.68,9.22-13.45,13.7-18.43,13.95-29.14,.25-10.71-1.48-62.26-1.48-62.26l-46.84,1.25Z" style="fill: rgb(255, 191, 157); transform-origin: 237.212px 395.63px;" id="eleiojhmzpkt7" class="animable"></path><path d="M215.68,321.35s.26-.02,.79-.04c.54-.02,1.33-.05,2.36-.08,2.1-.07,5.19-.16,9.19-.29,8.06-.24,19.78-.58,34.49-1.01h.17v.17c.28,8.46,.58,17.98,.91,28.37,.14,5.2,.28,10.62,.43,16.23,.12,5.62,.27,11.43,.22,17.44-.03,3.01-.49,6.09-1.48,9.04-1.03,2.94-2.55,5.72-4.25,8.39-1.71,2.68-3.55,5.3-5.39,7.96-1.85,2.67-3.76,5.32-5.37,8.19-3.28,5.73-6.21,11.82-9.11,18.03-2.89,6.22-5.69,12.61-8.45,19.11-1.3,3.09-2.58,6.16-3.81,9.22-.61,1.53-1.21,3.06-1.81,4.58-.29,.76-.58,1.53-.86,2.29l-.41,1.14-.19,.57c-.06,.18-.1,.41-.13,.45l-.23,.33-.08-.02c-4.16-1.04-8.26-2.07-12.29-3.07l-.2-.05v-.21c.24-5.52,.5-10.96,.89-16.3,.39-5.34,.96-10.58,1.88-15.66,.93-5.08,2.23-9.96,3.49-14.72,.33-1.19,.61-2.38,.98-3.54,.18-.58,.36-1.17,.53-1.75,.19-.58,.42-1.14,.63-1.7,.83-2.27,1.88-4.41,2.96-6.49,2.2-4.15,4.8-7.92,7.4-11.49,1.32-1.77,2.62-3.5,3.9-5.21,.63-.86,1.24-1.72,1.79-2.6,.13-.22,.24-.45,.37-.67,.06-.11,.12-.22,.18-.34l.11-.35,.11-.34v-.35c-.02-.24-.08-.5-.12-.74-.83-4.01-2.02-7.82-3.07-11.48-1.11-3.65-2.17-7.14-3.18-10.47-4.12-13.29-7.54-23.9-9.86-31.21-1.15-3.65-2.04-6.47-2.65-8.4-.29-.95-.51-1.68-.66-2.18-.07-.25-.12-.43-.15-.56-.03-.13-.03-.19-.03-.19,.09,.28,.35,1.11,.93,2.91,.63,1.92,1.55,4.73,2.74,8.37,2.37,7.29,5.85,17.89,10.01,31.16,1.04,3.32,2.12,6.81,3.21,10.46,1.07,3.66,2.26,7.45,3.11,11.51,.04,.26,.1,.51,.11,.79v.43l-.11,.4-.13,.4c-.06,.12-.12,.24-.18,.36-.13,.23-.25,.48-.38,.71-.56,.9-1.18,1.77-1.81,2.63-1.28,1.71-2.57,3.45-3.89,5.22-2.59,3.56-5.17,7.32-7.35,11.45-1.07,2.07-2.11,4.2-2.93,6.45-.21,.56-.44,1.12-.62,1.69-.17,.58-.35,1.15-.53,1.73-.37,1.15-.65,2.35-.98,3.53-1.26,4.76-2.55,9.63-3.47,14.69-.91,5.06-1.47,10.28-1.86,15.61-.39,5.33-.65,10.76-.87,16.28l-.19-.26c4.03,1.01,8.13,2.03,12.29,3.07l-.31,.31c0-.36,.09-.52,.14-.73l.19-.59,.41-1.16c.29-.76,.58-1.53,.87-2.3,.6-1.52,1.21-3.06,1.82-4.59,1.23-3.07,2.51-6.14,3.82-9.23,2.76-6.51,5.57-12.9,8.46-19.13,2.91-6.22,5.84-12.31,9.14-18.07,1.63-2.9,3.56-5.57,5.4-8.22,1.85-2.66,3.69-5.28,5.39-7.94,1.7-2.66,3.2-5.4,4.21-8.28,.97-2.9,1.43-5.91,1.46-8.89,.06-5.98-.08-11.8-.19-17.42-.14-5.62-.27-11.03-.4-16.23-.3-10.39-.58-19.91-.83-28.37l.18,.17c-14.67,.35-26.36,.63-34.39,.82-4.02,.09-7.12,.16-9.23,.2-1.05,.02-1.84,.03-2.39,.05-.54,0-.82,0-.82,0Z" style="fill: rgb(255, 154, 108); transform-origin: 237.215px 395.685px;" id="elkupshpy8k6" class="animable"></path></g><g id="elu1d7w8ndrz"><g style="opacity: 0.3; transform-origin: 260.665px 362.225px;" class="animable"><path d="M259.16,404.36s5.27-7.97,8.64-16.56c3.37-8.59,0-55.81,0-55.81,0,0,9.19-3,10.12-2.73s7.99-.04,9.67,1.04c1.68,1.08,10.51-4.75,10.51-4.75h5.12l1.92-5.46-88.95,2.99s2.18,6.83,2.35,7.36c.17,.53,44.3-.03,44.3-.03,0,0,2.76,52.93,0,59.67-2.76,6.75-3.69,7.95-3.69,7.95v6.33Z" style="fill: rgb(255, 154, 108); transform-origin: 260.665px 362.225px;" id="el56fje35hx3u" class="animable"></path></g></g><path d="M218.39,414.17c.05-.13,23.58,12.75,23.58,12.75l-19.26,44.26c-8.6,3.35-12.03,.94-12.83-4.39,0,0,1.18-22.8,3.6-36.37,1.79-9.99,4.91-16.25,4.91-16.25Z" style="fill: rgb(255, 145, 0); transform-origin: 225.925px 443.444px;" id="elhmldww14iah" class="animable"></path><path d="M257.74,416.6h25.48c.07,12.91-4.58,39.77-8.46,57.16l-16.37-1.74c-.63-16.52-1.49-35.36-.65-55.43Z" style="fill: rgb(255, 145, 0); transform-origin: 270.306px 445.175px;" id="elm2stqj7wiw" class="animable"></path><g id="elm1fevgyahl" class="animable" style="transform-origin: 276.584px 476.44px;"><path d="M276.34,470.22v1.16s19.65,8.11,19.82,11.86l-39.18-.58,.72-13.03c5.79,2.78,11.88,3.18,18.63,.58Z" style="fill: rgb(38, 50, 56); transform-origin: 276.57px 476.435px;" id="elsqvauvhns2e" class="animable"></path><path d="M256.99,482.67l.17-3.13,37.49,1.7s1.73,.78,1.52,2.01l-39.18-.58Z" style="fill: rgb(69, 90, 100); transform-origin: 276.589px 481.395px;" id="el6d13vnegpqh" class="animable"></path><path d="M276.47,471.5c0,.19-.97,.26-1.92,.87-.97,.58-1.46,1.4-1.64,1.32-.18-.04,.13-1.18,1.29-1.89,1.16-.72,2.31-.47,2.27-.3Z" style="fill: rgb(255, 255, 255); transform-origin: 274.667px 472.506px;" id="elawdhohqftzr" class="animable"></path><path d="M280.55,473.26c.04,.19-.79,.5-1.45,1.3-.68,.78-.86,1.65-1.05,1.64-.18,.03-.3-1.1,.55-2.07,.83-.99,1.96-1.05,1.96-.87Z" style="fill: rgb(255, 255, 255); transform-origin: 279.24px 474.69px;" id="elt8pvbq1hale" class="animable"></path><path d="M282.82,478.21c-.17,.04-.43-.92,.08-1.96,.5-1.04,1.41-1.44,1.49-1.28,.11,.16-.48,.71-.89,1.57-.42,.85-.49,1.66-.68,1.67Z" style="fill: rgb(255, 255, 255); transform-origin: 283.502px 476.574px;" id="eluz3luhzedb9" class="animable"></path></g><g id="el3voq6v1vd1e" class="animable" style="transform-origin: 219.522px 480.554px;"><path d="M209.44,467.05s9.89,8,14.2,2.5l1.19,2.61,5.46,18.66c.35,1.21-.21,2.55-1.4,3.03-.92,.37-1.94,.19-2.65-.45-3.79-3.4-17.66-15.96-17.56-17.7l-.02-4.6c0-.95,.66-3.3,.64-3.5l.14-.55Z" style="fill: rgb(38, 50, 56); transform-origin: 219.527px 480.545px;" id="el2e3176q7i77" class="animable"></path><path d="M228.44,494l-19.79-19.88,.02,1c-.08,1.09,.42,1.51,.96,2.2,1.61,2.04,6.04,6.6,16.54,16.09,.61,.55,1.47,.77,2.28,.58h0Z" style="fill: rgb(69, 90, 100); transform-origin: 218.55px 484.089px;" id="elt3xn5d8kdp" class="animable"></path><path d="M222.66,483.74c.14,.06,.66-1.19,2.1-1.89,1.41-.74,2.77-.43,2.79-.58,.02-.06-.29-.24-.86-.3-.57-.07-1.39,.02-2.18,.42-.79,.4-1.34,1-1.61,1.49-.27,.49-.31,.84-.24,.86Z" style="fill: rgb(255, 255, 255); transform-origin: 225.09px 482.345px;" id="elaep8fexum1m" class="animable"></path><path d="M224.46,486.88c.12,.1,.88-.69,2.14-1.06,1.24-.4,2.34-.2,2.37-.35,.07-.12-1.12-.6-2.54-.15-1.43,.44-2.1,1.5-1.97,1.56Z" style="fill: rgb(255, 255, 255); transform-origin: 226.709px 486.01px;" id="elqi2vuluf36" class="animable"></path><path d="M219.35,479.74c.12,.11,1.29-1.11,3.18-1.86,1.88-.78,3.59-.74,3.6-.89,.04-.13-1.78-.42-3.8,.41-2.03,.81-3.1,2.28-2.98,2.34Z" style="fill: rgb(255, 255, 255); transform-origin: 222.736px 478.29px;" id="elfy7zgml48f" class="animable"></path></g><path d="M257.59,423.03l25.36,.62s-.07,.97-.19,2.6l-25.25-.97,.07-2.25Z" style="fill: rgb(255, 255, 255); transform-origin: 270.23px 424.64px;" id="el74qgvkiu0k9" class="animable"></path><path d="M257.46,426.97l25.03,1.13s-.08,.72-.2,2.35l-24.9-1.23,.07-2.25Z" style="fill: rgb(255, 255, 255); transform-origin: 269.94px 428.71px;" id="elm51dtsop7u9" class="animable"></path><path d="M215.64,421.43l24.97,10.14s-.41,.89-1.1,2.36l-24.59-10.29,.73-2.21Z" style="fill: rgb(255, 255, 255); transform-origin: 227.765px 427.68px;" id="el0ujcyxws7oj" class="animable"></path><path d="M214.56,425.35l24.02,10.21s-.33,.65-1.03,2.12l-23.49-9.91,.49-2.43Z" style="fill: rgb(255, 255, 255); transform-origin: 226.32px 431.51px;" id="elv33zovsbrml" class="animable"></path></g><g id="elfw40lrinpei" class="animable" style="transform-origin: 311.081px 154.072px;"><path d="M291.09,187.24c.39,.39,29.54,12.68,43.4,6.54,13.86-6.14,8.89-13.33,3.27-19.09-5.62-5.75-36.72-26.83-36.72-26.83l-9.99,8.33,9.97,11.44-13.07-9.15,3.14,28.76Z" style="fill: rgb(255, 191, 157); transform-origin: 315.697px 171.678px;" id="elt62bsbx0w9" class="animable"></path><path d="M327.82,185.31s-.11,.07-.34,.14c-.23,.08-.58,.17-1.04,.24-.92,.15-2.29,.17-3.92-.23-1.62-.39-3.46-1.24-5.24-2.52-1.8-1.27-3.54-2.94-5.35-4.66-3.64-3.45-6.91-6.6-9.26-8.9-1.11-1.1-2.04-2.02-2.77-2.74-.65-.66-.99-1.03-.97-1.06,.02-.03,.42,.3,1.1,.91,.75,.69,1.72,1.57,2.88,2.62,2.42,2.23,5.73,5.34,9.37,8.79,1.82,1.73,3.53,3.39,5.27,4.65,1.73,1.28,3.49,2.13,5.05,2.56,3.17,.88,5.21,.09,5.21,.21Z" style="fill: rgb(255, 154, 108); transform-origin: 313.375px 175.684px;" id="eld5zu13ia254" class="animable"></path><g id="els6keoww4tc" class="animable" style="transform-origin: 290.535px 134.52px;"><g id="eld0gawov8zy" class="animable" style="transform-origin: 290.535px 134.52px;"><path d="M302.33,148.77l-1.76-8.81s1.31-2.25,1.4-3.79c.08-1.3-.11-2.84-1.17-3.06,0,0-.41-3.66-3.89-2.26,0,0-.35-.48-1.35-.66,0,0,1.94-12.85,2.11-14.97,.18-2.13-1.93-3.33-3.21-1.36-1.28,1.97-4.15,16.01-5.82,16.06-1.68,.05-5.75-12.05-7.16-13.98-1.41-1.93-2.84,.02-2.45,2.45s5.29,16.7,5.29,16.7c0,0,.88,11.73,2.06,15.41,1.18,3.67,4.84,5.79,4.84,5.79" style="fill: rgb(255, 191, 157); transform-origin: 290.647px 134.575px;" id="elk5c09fuivo" class="animable"></path><path d="M291.23,156.3s-.13-.05-.37-.2c-.23-.15-.57-.37-1-.7-.83-.66-2.05-1.73-3.04-3.53-.49-.9-.79-2.01-1.04-3.21-.25-1.2-.45-2.52-.65-3.93-.39-2.83-.73-6.05-1.02-9.6v.05c-.82-2.45-1.71-5.08-2.65-7.86-.45-1.4-.92-2.83-1.39-4.3-.45-1.48-.95-2.97-1.29-4.59-.12-.83-.09-1.72,.29-2.54,.19-.39,.51-.83,1.06-.94,.56-.1,1.02,.25,1.32,.57,.61,.7,.9,1.5,1.28,2.27,.35,.78,.69,1.57,1.03,2.37,.67,1.59,1.34,3.21,2.07,4.83,.36,.81,.74,1.61,1.15,2.41,.41,.77,.85,1.62,1.43,2.16,.16,.12,.24,.15,.31,.09,.12-.06,.25-.25,.36-.41,.22-.35,.4-.76,.58-1.16,.34-.81,.62-1.65,.89-2.48,.54-1.67,1.01-3.34,1.48-4.99,.47-1.65,.92-3.28,1.43-4.87,.29-.78,.47-1.61,1.06-2.32,.29-.33,.68-.63,1.14-.73,.46-.11,.97,.01,1.34,.28,.77,.55,1,1.52,.92,2.34-.11,.78-.22,1.55-.33,2.31-.22,1.52-.43,3.01-.64,4.45-.42,2.89-.81,5.63-1.18,8.19l-.17-.23c.56,.11,1.07,.29,1.48,.74l-.23-.07c.9-.35,2.02-.52,2.85,.08,.81,.58,1.15,1.49,1.29,2.35l-.14-.15c.42,.09,.76,.4,.93,.74,.19,.34,.27,.7,.32,1.05,.09,.7,.09,1.37-.04,2.02-.29,1.27-.83,2.33-1.36,3.28l.02-.09c.53,2.81,.95,5.01,1.24,6.54,.13,.72,.23,1.29,.31,1.71,.07,.39,.09,.59,.08,.59-.01,0-.06-.19-.15-.57-.09-.41-.22-.98-.37-1.69-.32-1.53-.78-3.72-1.37-6.51v-.05l.02-.05c.5-.93,1.03-2,1.29-3.2,.11-.59,.1-1.26,.02-1.91-.09-.63-.35-1.37-.99-1.49l-.12-.02-.02-.13c-.12-.77-.47-1.61-1.15-2.08-.68-.49-1.65-.36-2.49-.02l-.13,.05-.11-.12c-.26-.29-.74-.49-1.23-.57l-.19-.03,.03-.2c.35-2.56,.73-5.29,1.13-8.18,.2-1.44,.41-2.93,.62-4.44,.11-.76,.21-1.53,.32-2.3,.06-.71-.15-1.49-.73-1.9-.57-.43-1.35-.21-1.82,.37-.47,.56-.69,1.39-.96,2.16-.51,1.57-.95,3.2-1.42,4.85-.47,1.65-.94,3.33-1.48,5.01-.27,.84-.56,1.69-.91,2.52-.18,.42-.37,.83-.62,1.24-.14,.2-.26,.41-.53,.58-.13,.09-.36,.14-.52,.08-.16-.05-.29-.13-.39-.21-.75-.7-1.13-1.52-1.57-2.32-.42-.81-.79-1.62-1.16-2.43-.73-1.63-1.4-3.25-2.07-4.84-.34-.79-.68-1.58-1.02-2.36-.36-.75-.68-1.58-1.18-2.14-.25-.27-.57-.48-.86-.42-.29,.06-.54,.34-.7,.67-.32,.68-.36,1.49-.25,2.25,.32,1.53,.81,3.06,1.26,4.53,.47,1.47,.93,2.9,1.37,4.3,.93,2.78,1.8,5.41,2.62,7.87v.05c.28,3.55,.59,6.77,.95,9.59,.18,1.41,.37,2.72,.6,3.92,.23,1.2,.5,2.27,.97,3.16,.93,1.77,2.11,2.86,2.91,3.55,.41,.34,.73,.59,.95,.75,.22,.16,.34,.24,.33,.25Z" style="fill: rgb(255, 154, 108); transform-origin: 290.535px 134.52px;" id="elwfu93utr1t" class="animable"></path></g><g id="el9n49104hk24" class="animable" style="transform-origin: 293.539px 141.322px;"><path d="M299.02,149.85c1.14-4.83-2.93-6.38-5.39-7.12-.47-.14-1.02-.32-1.15-.79-.09-.31,.05-.63,.17-.92,.57-1.35,1-2.76,1.26-4.2,.12-.68,.21-1.39,.06-2.07-.15-.68-.57-1.33-1.21-1.6-.82-.33-1.79,.05-2.4,.7s-.93,1.5-1.23,2.33c-.46,1.25-1.54,2.62-1.19,5.07" style="fill: rgb(255, 191, 157); transform-origin: 293.544px 141.439px;" id="el41vedhm8802" class="animable"></path><path d="M287.93,141.26s-.05-.11-.09-.32c-.04-.21-.07-.52-.07-.93,0-.41,.06-.91,.21-1.47,.15-.56,.42-1.17,.71-1.82,.29-.63,.48-1.41,.9-2.18,.4-.76,1.14-1.56,2.21-1.72,.52-.09,1.12,.05,1.55,.42,.44,.36,.71,.87,.85,1.42,.24,1.12-.04,2.2-.27,3.27-.26,1.08-.6,2.11-1.01,3.07-.23,.49-.35,.88-.06,1.12,.29,.26,.79,.36,1.24,.51,1.82,.58,3.43,1.46,4.31,2.69,.91,1.21,.95,2.52,.87,3.3-.02,.41-.12,.71-.17,.92-.05,.21-.09,.31-.11,.31-.05-.01,.05-.45,.07-1.24,.01-.77-.08-1.98-.96-3.07-.85-1.1-2.38-1.91-4.16-2.45-.43-.16-.94-.2-1.43-.6-.24-.2-.38-.58-.33-.89,.04-.31,.17-.56,.26-.79,.39-.94,.72-1.95,.97-3,.23-1.05,.49-2.11,.28-3.04-.19-.93-.98-1.64-1.84-1.48-.86,.12-1.51,.76-1.9,1.45-.41,.7-.62,1.46-.95,2.12-1.46,2.52-.99,4.4-1.1,4.39Z" style="fill: rgb(255, 154, 108); transform-origin: 293.539px 141.322px;" id="elqmuzz1nz1w" class="animable"></path></g><path d="M294.41,138.54s.09,.18,.28,.45c.19,.26,.55,.6,1.11,.76,.54,.16,1.26,.05,1.9-.37,.65-.41,1.16-1.12,1.53-1.96,.74-1.7,1.03-3.4,.89-4.59-.12-1.21-.57-1.86-.48-1.91,.03-.04,.62,.57,.85,1.86,.24,1.27,0,3.08-.78,4.86-.39,.89-.98,1.7-1.75,2.16-.75,.47-1.63,.56-2.27,.32-.64-.23-1.02-.67-1.17-1-.16-.34-.13-.55-.11-.55Z" style="fill: rgb(255, 154, 108); transform-origin: 297.486px 135.583px;" id="elupahbylgv7" class="animable"></path><path d="M294.59,138.95c-.13-.09,1.07-1.72,1.61-4.09,.58-2.36,.24-4.35,.4-4.38,.12-.05,.71,2,.11,4.5-.58,2.5-2.03,4.07-2.12,3.97Z" style="fill: rgb(255, 154, 108); transform-origin: 295.778px 134.717px;" id="el0tm2vcu97jq" class="animable"></path></g></g><g id="elqyttfukpvlp" class="animable" style="transform-origin: 190.543px 137.298px;"><path d="M203.88,128.37c-.07-.18-45.57,7.95-50.94,15.4-5.37,7.45-2.63,13.8,3.29,17.09,5.92,3.29,27.63,12.77,38.9,14.87,0,0,8.58-14.25-.43-24.2l-8.68-1.73,20.87-10.2-3.02-11.23Z" style="fill: rgb(255, 191, 157); transform-origin: 178.475px 152.049px;" id="elfi8n5t17srs" class="animable"></path><path d="M185.4,149.43s-.18,.24-.58,.61c-.39,.37-1.01,.86-1.81,1.41-1.59,1.1-4.03,2.32-6.92,3-2.9,.67-5.62,.64-7.54,.35-.96-.14-1.73-.3-2.24-.47-.52-.16-.8-.26-.79-.29,.02-.09,1.18,.21,3.07,.4,1.89,.19,4.55,.15,7.38-.5,2.83-.66,5.22-1.8,6.84-2.8,1.62-1,2.52-1.78,2.59-1.71Z" style="fill: rgb(255, 154, 108); transform-origin: 175.46px 152.21px;" id="elx1xzf56wva" class="animable"></path><g id="elztf4h8lz0b" class="animable" style="transform-origin: 214.028px 119.858px;"><path d="M197.04,129.59l5.05-7.43s-.33-2.58,.18-4.03c.43-1.22,1.21-2.58,2.27-2.36,0,0,1.8-3.21,4.46-.57,0,0,.51-.31,1.5-.08,0,0,3.22-12.59,3.88-14.62,.67-2.03,3.08-2.32,3.49,0,.41,2.31-2.42,16.36-.89,17.06,1.53,.7,9.99-8.86,12.04-10.09s2.61,1.13,1.3,3.22c-1.31,2.09-11.38,13.32-11.38,13.32,0,0-5.38,10.46-7.9,13.39-2.51,2.92-6.71,3.45-6.71,3.45l-7.3-11.26Z" style="fill: rgb(255, 191, 157); transform-origin: 214.028px 119.858px;" id="elmsjoyko5gj" class="animable"></path><g id="elvkfwbe72oql" class="animable" style="transform-origin: 206.996px 125.295px;"><path d="M199.67,131.88c.83-4.89,5.18-4.73,7.74-4.46,.48,.05,1.06,.1,1.37-.28,.2-.25,.2-.6,.2-.92,0-1.46,.16-2.93,.47-4.36,.15-.68,.35-1.36,.75-1.93,.4-.57,1.04-1.01,1.74-1,.89,.01,1.63,.75,1.94,1.58s.27,1.74,.23,2.63c-.06,1.33,.4,3.01-.87,5.13" style="fill: rgb(255, 191, 157); transform-origin: 206.907px 125.405px;" id="elaribfzt7b15" class="animable"></path><path d="M213.22,128.28c-.11-.03,1.06-1.58,.69-4.47-.05-.74,.06-1.52-.04-2.32-.08-.79-.44-1.64-1.18-2.08-.72-.48-1.73-.13-2.27,.65-.55,.77-.73,1.85-.92,2.91-.18,1.07-.26,2.12-.27,3.14,0,.25,.02,.53-.07,.83-.07,.31-.35,.6-.65,.69-.6,.18-1.09,.02-1.55,0-1.85-.19-3.58-.05-4.79,.64-1.23,.66-1.79,1.74-2.08,2.45-.29,.73-.36,1.18-.42,1.17-.02,0-.01-.11,.02-.32,.04-.21,.06-.53,.2-.91,.23-.75,.78-1.94,2.09-2.71,1.29-.79,3.12-.97,5.02-.8,.48,.03,.98,.14,1.34,.01,.36-.11,.4-.51,.38-1.06,0-1.04,.09-2.13,.27-3.22,.21-1.07,.36-2.19,1.02-3.12,.33-.45,.79-.82,1.33-.98,.54-.17,1.15-.06,1.59,.22,.92,.56,1.29,1.58,1.37,2.44,.09,.88-.04,1.67-.02,2.36,.02,.71,.03,1.38-.05,1.95-.08,.58-.22,1.06-.38,1.44-.16,.38-.31,.65-.43,.83-.12,.18-.19,.27-.2,.26Z" style="fill: rgb(255, 154, 108); transform-origin: 206.996px 125.295px;" id="el5ardchsq42x" class="animable"></path></g><path d="M208.31,123.25s-.03,.22-.31,.47c-.27,.24-.79,.51-1.47,.47-.68-.02-1.46-.46-1.97-1.18-.53-.72-.76-1.7-.77-2.67-.03-1.94,.45-3.7,1.17-4.78,.71-1.09,1.49-1.43,1.5-1.38,.06,.07-.61,.5-1.19,1.57-.59,1.05-.99,2.73-.97,4.58,.01,.92,.21,1.77,.65,2.4,.42,.64,1.04,1.02,1.61,1.08,.57,.08,1.04-.09,1.31-.26,.28-.17,.4-.33,.43-.3Z" style="fill: rgb(255, 154, 108); transform-origin: 206.049px 119.185px;" id="el51ux34cqf13" class="animable"></path><path d="M207.99,123.56c-.12,.06-.84-1.95-.41-4.48,.41-2.53,1.76-4.19,1.85-4.1,.14,.08-.95,1.79-1.34,4.18-.42,2.39,.05,4.36-.11,4.39Z" style="fill: rgb(255, 154, 108); transform-origin: 208.443px 119.269px;" id="eljhcuawpbp4" class="animable"></path></g></g><g id="elzpve9fe5qqh" class="animable" style="transform-origin: 259.535px 279.4px;"><path d="M284.73,230.01l-58.5,1.27c-13.84,20.34-21.9,53.83-29.33,91.82l21.03,3.41,8.44,3.81,9.55-4.07,10.59,3.04,9.77-2.67,13.11,2.67,9.18-3.63,11.03,2.07,8.07-6.37,10.92,1.74,13.58-9.69c-9.55-34.36-27.04-64.55-37.45-83.39Z" style="fill: rgb(255, 145, 0); transform-origin: 259.535px 280.165px;" id="eldo0iepgjqd" class="animable"></path><g id="elfsboiqzuxup"><g style="opacity: 0.3; transform-origin: 255.585px 235.175px;" class="animable"><polygon points="224.11 234.53 257.52 241.87 287.06 234.34 283.9 228.48 227.31 228.48 224.11 234.53" id="eln7b1j7b2n9" class="animable" style="transform-origin: 255.585px 235.175px;"></polygon></g></g><g id="eluj8u0bfptf8"><g style="opacity: 0.3; transform-origin: 221.963px 299.315px;" class="animable"><path d="M217.93,326.5c-.71-.15,7.32-58.02,7.32-58.02l.79,61.67-8.11-3.66Z" id="ela0hfz5kxhhh" class="animable" style="transform-origin: 221.963px 299.315px;"></path></g></g><g id="el0twcminros4f"><g style="opacity: 0.3; transform-origin: 241.675px 299.825px;" class="animable"><polygon points="247.42 270.38 235.93 326.23 246.52 329.27 247.42 270.38" id="elbeqjlo7zb1e" class="animable" style="transform-origin: 241.675px 299.825px;"></polygon></g></g><g id="el30yzc638pta"><g style="opacity: 0.3; transform-origin: 262.835px 304.345px;" class="animable"><path d="M256.29,326.6s4.52-45.99,4.68-47.15,8.42,49.81,8.42,49.81l-13.11-2.67Z" id="el0v6j8b83rnd" class="animable" style="transform-origin: 262.835px 304.345px;"></path></g></g><g id="elks3p81k6p18"><g style="opacity: 0.3; transform-origin: 283.905px 301.995px;" class="animable"><path d="M278.78,325.6s-1.03-49.49-.37-49.32l11.21,51.43-10.83-2.11Z" id="elavkj4zu6kyr" class="animable" style="transform-origin: 283.905px 301.995px;"></path></g></g><g id="elichm4mlpo8i"><g style="opacity: 0.3; transform-origin: 298.1px 296.53px;" class="animable"><polygon points="297.69 321.35 287.59 269.97 308.61 323.09 297.69 321.35" id="elc3ux0yvi0bv" class="animable" style="transform-origin: 298.1px 296.53px;"></polygon></g></g><path d="M218.46,325.56c1.7-17,3.39-33.99,5.09-50.99" style="fill: rgb(255, 154, 108); transform-origin: 221.005px 300.065px;" id="el4nc0dyvudfh" class="animable"></path><path d="M247.42,265.59s.03,.22,.03,.65c0,.48-.01,1.09-.02,1.86-.03,1.68-.08,3.99-.14,6.82-.1,5.82-.25,13.75-.41,22.51-.13,8.79-.21,16.75-.24,22.51-.02,2.83-.03,5.15-.05,6.82-.01,.76-.02,1.38-.03,1.86-.01,.42-.03,.65-.05,.65-.02,0-.04-.22-.06-.65-.02-.48-.04-1.09-.07-1.85-.05-1.61-.09-3.94-.12-6.82-.06-5.76-.04-13.73,.09-22.52,.13-8.79,.34-16.75,.56-22.51,.11-2.88,.22-5.21,.31-6.82,.05-.76,.09-1.37,.12-1.85,.03-.42,.06-.65,.08-.64Z" style="fill: rgb(38, 50, 56); transform-origin: 246.839px 297.43px;" id="el4ozuhrhhcf4" class="animable"></path><path d="M225.83,321.59l-7.19-4.01c-7.06-1.34-17.71-3.34-18.34-3.38l.03-.49-.53-.1q.12-.61,19.11,3l.15,.05,6.96,3.88,12.54-2,8.08,2,10.85-3.05,10.23,1.37,10.79-4.82,8.46,1.43,8.58-4.97,8.48,.9,13.68-11.73,.65,.76-14,12.01-8.59-.91-8.61,4.99-8.52-1.44-10.77,4.81-10.31-1.38-10.9,3.07-8.14-2.02-12.68,2.02Z" style="fill: rgb(255, 255, 255); transform-origin: 259.08px 310.63px;" id="el9sf1zsnz9w" class="animable"></path><path d="M225.83,317.97l-7.19-4.01c-7.06-1.34-17.71-3.34-18.34-3.38l.03-.49-.53-.1q.12-.62,19.11,3l.15,.05,6.96,3.88,12.54-2,8.08,2,10.85-3.05h.1l10.13,1.37,10.79-4.82,8.46,1.43,8.58-4.97,8.48,.9,13.68-11.73,.65,.76-14,12.01-8.59-.91-8.61,4.99-8.52-1.44-10.77,4.81-.14-.02-10.17-1.36-10.9,3.07-8.14-2.02-12.68,2.02Z" style="fill: rgb(255, 255, 255); transform-origin: 259.08px 307.01px;" id="elj7nrsyan8k9" class="animable"></path></g><g id="ely701u6fmwx" class="animable" style="transform-origin: 248.344px 187.225px;"><path d="M193.57,177.18l17.26,3.6,13.28,33.32,.55,16.86,31.97,6.35,28.11-7.31,5.91-51.88s-5.53-24.22-5.91-24.6c-.38-.38-15.83-5.34-16.4-5.34s-4.73-8.7-4.73-8.7c0,0-9.11,8.37-9.68,8.37s-13.8-10.71-13.8-10.71l-4.78,7.79s-9.35,.95-10.49,1.14-30.13,3.81-31.28,4.2c-1.14,.38,0,26.89,0,26.89Z" style="fill: rgb(224, 224, 224); transform-origin: 241.862px 187.225px;" id="elphnj4e7fpif" class="animable"></path><path d="M197.7,149.65s2.66,2.08,3.84,7.2c2.71,11.81-1.92,21.77-1.92,21.77l-6.05-1.43-1.03-25.53c-.03-.74,.5-1.39,1.23-1.5l3.27-.5" style="fill: rgb(38, 50, 56); transform-origin: 197.465px 164.135px;" id="el85tidqusfpk" class="animable"></path><g id="elckro6wziocw"><g style="opacity: 0.3; transform-origin: 245.82px 175.205px;" class="animable"><path d="M206.9,149.28c.32,.12,29.11,16.44,39.65,16.3l3.18,1.55,1.89,32.76s-.34,3.76,2.31-1.76c2.65-5.52,3.74-12.17,3.74-12.17,0,0,2.84,13.85,5.31,11.09,2.47-2.76,4.26-8.71,4.26-8.71l-7.05-18.71,3.42-5.5,21.13-10.6-30.81,7.9-47.03-12.16Z" id="elf7qj1yrifxa" class="animable" style="transform-origin: 245.82px 175.205px;"></path></g></g><path d="M205.34,148.62c-.44,.3,49.51,16.96,49.51,16.96l-.19-8.36-19.32-12.28s-25.43,.54-30,3.68Z" style="fill: rgb(255, 145, 0); transform-origin: 230.094px 155.26px;" id="el65xun1u8c7t" class="animable"></path><path d="M254.65,157.22c0,.69,.19,8.36,.19,8.36,0,0,29.78-11.99,29.89-12.05,0,0-10.64-6.21-16.4-5.34l-13.68,9.03Z" style="fill: rgb(255, 145, 0); transform-origin: 269.69px 156.843px;" id="elwdmnrd3cncl" class="animable"></path><path d="M254.82,167.51l-4.29-1.19c-4.23,4.03-6.77,10.4-6.67,16.78s2.81,12.65,7.15,16.51c.18,.16,.39,.32,.61,.28,.29-.05,.45-.42,.55-.74,3.35-9.99,4.28-21.08,2.65-31.65Z" style="fill: rgb(255, 145, 0); transform-origin: 249.73px 183.108px;" id="elbxmlio9lwre" class="animable"></path><path d="M254.94,167.87l3.52-1.82c4.43,2.73,7.81,7.82,8.9,13.4s-.12,11.54-3.2,15.71c-.13,.17-.28,.35-.48,.36-.26,0-.47-.28-.62-.54-4.76-8.09-7.61-17.59-8.13-27.1Z" style="fill: rgb(255, 145, 0); transform-origin: 261.342px 180.785px;" id="elhfs7t746ewn" class="animable"></path><path d="M217.58,146l32.14,14.23,1.06-2.39-26.51-12.39s-4.09,.36-6.69,.55Z" style="fill: rgb(255, 255, 255); transform-origin: 234.18px 152.84px;" id="elr2n7g3negu" class="animable"></path><path d="M260.18,158.4l13.35-9.69,4.91,1.72s-17.32,9.97-17.37,9.81-.9-1.83-.9-1.83Z" style="fill: rgb(255, 255, 255); transform-origin: 269.305px 154.476px;" id="el73t3msque4a" class="animable"></path><path d="M261.36,162.14c0,3.6-2.92,6.51-6.51,6.51s-6.51-2.92-6.51-6.51,2.92-6.51,6.51-6.51,6.51,2.92,6.51,6.51Z" style="fill: rgb(255, 145, 0); transform-origin: 254.85px 162.14px;" id="el6t8umun2h07" class="animable"></path><polygon points="288.46 186.93 298.29 190.91 304.15 170.54 297 162.14 284.73 153.53 278.44 172.22 288.46 186.93" style="fill: rgb(224, 224, 224); transform-origin: 291.295px 172.22px;" id="elmzsuch8smio" class="animable"></polygon><path d="M295.86,171.14c.07,.03-.42,1.21-1.16,3.14-.75,1.92-1.72,4.6-2.63,7.61-.91,3.01-1.58,5.78-2.03,7.79-.45,2.01-.69,3.27-.77,3.26-.04,0-.02-.33,.05-.9,.06-.58,.18-1.41,.36-2.43,.35-2.04,.97-4.84,1.89-7.87,.92-3.03,1.96-5.7,2.79-7.6,.42-.95,.78-1.71,1.04-2.22,.27-.52,.43-.79,.46-.78Z" style="fill: rgb(38, 50, 56); transform-origin: 292.558px 182.04px;" id="elcrzwqy4djgs" class="animable"></path><path d="M274.9,194.79c.09,.11-5.17,4.9-11.76,10.7-6.59,5.8-12.01,10.41-12.1,10.31-.09-.11,5.17-4.9,11.76-10.7,6.59-5.8,12.01-10.41,12.1-10.31Z" style="fill: rgb(38, 50, 56); transform-origin: 262.97px 205.295px;" id="el7breb2bxmho" class="animable"></path><polygon points="294.36 189.32 298.29 190.91 304.15 170.54 301.24 167.11 294.36 189.32" style="fill: rgb(38, 50, 56); transform-origin: 299.255px 179.01px;" id="elx19qoz91rxl" class="animable"></polygon><path d="M208.58,162.56c.07-.01,.39,1.13,.79,3.01,.4,1.88,.87,4.5,1.23,7.41,.36,2.91,.54,5.57,.6,7.49,.06,1.92,.03,3.11-.04,3.11-.08,0-.17-1.18-.33-3.09-.16-1.91-.39-4.55-.75-7.45-.36-2.9-.76-5.52-1.07-7.41-.31-1.89-.5-3.06-.43-3.08Z" style="fill: rgb(38, 50, 56); transform-origin: 209.899px 173.065px;" id="elfuhm1b89k" class="animable"></path><path d="M254.85,168.65s.47-.11,1.29-.31c.8-.22,2.02-.6,3.08-1.65,1.1-1.01,1.81-2.72,1.96-4.71,.31-1.92-.96-4.05-2.85-5.22-.95-.59-2.03-.93-3.08-.99-1.05-.05-2.08,.17-2.97,.57-1.81,.79-2.98,2.28-3.47,3.67-.52,1.4-.47,2.66-.35,3.49,.13,.83,.32,1.27,.27,1.29-.02,0-.07-.1-.17-.3-.09-.21-.21-.52-.3-.95-.19-.84-.3-2.15,.2-3.65,.47-1.48,1.7-3.12,3.62-3.98,.95-.44,2.05-.69,3.19-.64,1.14,.05,2.31,.41,3.33,1.05,2.03,1.26,3.41,3.57,3.05,5.72-.17,2.03-.98,3.89-2.19,4.92-1.17,1.08-2.46,1.42-3.29,1.58-.42,.09-.76,.09-.99,.11-.23,.01-.34,.01-.35,0Z" style="fill: rgb(38, 50, 56); transform-origin: 254.904px 161.961px;" id="elzymnvjqmjxc" class="animable"></path><path d="M250.33,154.48s.29-.6,.9-1.59c.61-.99,1.5-2.38,2.58-4.05l.17-.26,.2,.25c1.19,1.49,2.56,3.21,4.02,5.03l.55,.7-.31-.07c3.09-1.42,5.79-2.81,7.52-4.13,1.75-1.29,2.6-2.34,2.67-2.28,.02,.02-.16,.3-.56,.77-.4,.47-1.03,1.1-1.89,1.8-1.71,1.42-4.43,2.89-7.52,4.32l-.19,.09-.13-.16c-.18-.22-.36-.46-.55-.7-1.44-1.84-2.79-3.57-3.97-5.07l.37-.02c-1.12,1.64-2.06,3-2.74,3.95s-1.08,1.47-1.12,1.45Z" style="fill: rgb(38, 50, 56); transform-origin: 259.481px 151.569px;" id="elllehroop4tf" class="animable"></path><path d="M249.59,178.8c-.14-.02,.21-2.44,1.04-5.32,.82-2.89,1.81-5.11,1.94-5.06,.14,.05-.62,2.35-1.44,5.21-.82,2.86-1.39,5.21-1.54,5.18Z" style="fill: rgb(38, 50, 56); transform-origin: 251.073px 173.615px;" id="elz7z55pxr2q" class="animable"></path><path d="M255.52,174.71c-.15-.04,.22-1.38,.01-3.02-.18-1.65-.86-2.85-.72-2.93,.1-.09,1.03,1.09,1.24,2.87,.22,1.78-.41,3.14-.53,3.08Z" style="fill: rgb(38, 50, 56); transform-origin: 255.444px 171.734px;" id="eluykdjj90im" class="animable"></path><path d="M263.64,177.1c-.14,.06-1.11-2.21-2.77-4.72-1.64-2.53-3.33-4.33-3.21-4.44,.09-.1,1.97,1.57,3.65,4.15,1.69,2.57,2.46,4.97,2.34,5.01Z" style="fill: rgb(38, 50, 56); transform-origin: 260.658px 172.518px;" id="elwbvv1bmg6ck" class="animable"></path><path d="M258.77,160.1c.12,.05-1.12,2.28-3.59,4.14-2.46,1.88-4.94,2.46-4.96,2.34-.06-.15,2.28-.94,4.65-2.75,2.39-1.79,3.78-3.82,3.91-3.73Z" style="fill: rgb(38, 50, 56); transform-origin: 254.499px 163.346px;" id="elumihr0s94cb" class="animable"></path><g id="eldyjgnhjr1gl"><g style="opacity: 0.3; transform-origin: 259.325px 216.679px;" class="animable"><path d="M245.77,222.77l-1.2,.51c11.16,.46,22.42-4.59,29.51-13.23-8.55,5.92-18.2,10.25-28.3,12.72Z" id="el03eibiejq9fc" class="animable" style="transform-origin: 259.325px 216.679px;"></path></g></g></g><path d="M220.8,209.22c4.98-8.88,10.17-18.51,10.06-29.37-.06-6.2-1.88-12.36-1.31-18.51,.57-6.14,3.44-11.49,5.57-17.06,2.13-5.57,.76-33.02,1.57-41.68l3.94-2.04c4.03,9.14,6.8,48.34,3.37,57.69-1.49,4.06-3.68,7.88-4.03,12.33-.54,6.75,3.26,13.2,2.99,19.98-.37,9.28-8.23,17.08-6.33,26.12-5.58-1.28-10.97-3.82-15.84-7.46Z" style="fill: rgb(38, 50, 56); transform-origin: 233.17px 158.62px;" id="el8u7pey9qplj" class="animable"></path></g></g><defs>     <filter id="active" height="200%">         <feMorphology in="SourceAlpha" result="DILATED" operator="dilate" radius="2"></feMorphology>                <feFlood flood-color="#32DFEC" flood-opacity="1" result="PINK"></feFlood>        <feComposite in="PINK" in2="DILATED" operator="in" result="OUTLINE"></feComposite>        <feMerge>            <feMergeNode in="OUTLINE"></feMergeNode>            <feMergeNode in="SourceGraphic"></feMergeNode>        </feMerge>    </filter>    <filter id="hover" height="200%">        <feMorphology in="SourceAlpha" result="DILATED" operator="dilate" radius="2"></feMorphology>                <feFlood flood-color="#ff0000" flood-opacity="0.5" result="PINK"></feFlood>        <feComposite in="PINK" in2="DILATED" operator="in" result="OUTLINE"></feComposite>        <feMerge>            <feMergeNode in="OUTLINE"></feMergeNode>            <feMergeNode in="SourceGraphic"></feMergeNode>        </feMerge>            <feColorMatrix type="matrix" values="0   0   0   0   0                0   1   0   0   0                0   0   0   0   0                0   0   0   1   0 "></feColorMatrix>    </filter></defs></svg>
